<?xml version="1.0" encoding="UTF-8"?>
<!DOCTYPE svg PUBLIC "-//W3C//DTD SVG 1.1//EN" "http://www.w3.org/Graphics/SVG/1.1/DTD/svg11.dtd">
<!-- Creator: CorelDRAW 2020 (64-Bit) -->
<svg xmlns="http://www.w3.org/2000/svg" xml:space="preserve" width="271.077mm" height="279.047mm" version="1.1" style="shape-rendering:geometricPrecision; text-rendering:geometricPrecision; image-rendering:optimizeQuality; fill-rule:evenodd; clip-rule:evenodd"
viewBox="0 0 3643.33 3750.44"
 xmlns:xlink="http://www.w3.org/1999/xlink"
 xmlns:xodm="http://www.corel.com/coreldraw/odm/2003">
 <defs>
  <style type="text/css">
   <![CDATA[
    .str1 {stroke:#263138;stroke-width:4.87;stroke-miterlimit:10}
    .str0 {stroke:#263138;stroke-width:5.72;stroke-miterlimit:10}
    .fil42 {fill:none;fill-rule:nonzero}
    .fil33 {fill:black;fill-rule:nonzero}
    .fil10 {fill:#263138;fill-rule:nonzero}
    .fil23 {fill:#26DDBF;fill-rule:nonzero}
    .fil2 {fill:#36464F;fill-rule:nonzero}
    .fil3 {fill:#445964;fill-rule:nonzero}
    .fil45 {fill:#4D4D4D;fill-rule:nonzero}
    .fil46 {fill:#666666;fill-rule:nonzero}
    .fil4 {fill:gray;fill-rule:nonzero}
    .fil28 {fill:#999999;fill-rule:nonzero}
    .fil16 {fill:#B3B3B3;fill-rule:nonzero}
    .fil30 {fill:#CCCCCC;fill-rule:nonzero}
    .fil12 {fill:#DFDFDF;fill-rule:nonzero}
    .fil11 {fill:#E6E6E6;fill-rule:nonzero}
    .fil19 {fill:#E6E6E6;fill-rule:nonzero}
    .fil14 {fill:#EBEBEB;fill-rule:nonzero}
    .fil0 {fill:#ECAC3E;fill-rule:nonzero}
    .fil32 {fill:#EDB451;fill-rule:nonzero}
    .fil1 {fill:#EDB556;fill-rule:nonzero}
    .fil41 {fill:#F28E8E;fill-rule:nonzero}
    .fil13 {fill:#F4F4F4;fill-rule:nonzero}
    .fil39 {fill:#F9F9F9;fill-rule:nonzero}
    .fil38 {fill:#FFBD9C;fill-rule:nonzero}
    .fil15 {fill:white;fill-rule:nonzero}
    .fil37 {fill:black;fill-rule:nonzero;fill-opacity:0.101961}
    .fil44 {fill:black;fill-rule:nonzero;fill-opacity:0.101961}
    .fil9 {fill:black;fill-rule:nonzero;fill-opacity:0.149020}
    .fil47 {fill:black;fill-rule:nonzero;fill-opacity:0.200000}
    .fil36 {fill:black;fill-rule:nonzero;fill-opacity:0.250980}
    .fil35 {fill:black;fill-rule:nonzero;fill-opacity:0.301961}
    .fil8 {fill:black;fill-rule:nonzero;fill-opacity:0.400000}
    .fil40 {fill:black;fill-rule:nonzero;fill-opacity:0.501961}
    .fil6 {fill:gray;fill-rule:nonzero;fill-opacity:0.501961}
    .fil7 {fill:#CCCCCC;fill-rule:nonzero;fill-opacity:0.501961}
    .fil17 {fill:white;fill-rule:nonzero;fill-opacity:0.501961}
    .fil5 {fill:black;fill-rule:nonzero;fill-opacity:0.600000}
    .fil31 {fill:#CCCCCC;fill-rule:nonzero;fill-opacity:0.600000}
    .fil20 {fill:#E6E6E6;fill-rule:nonzero;fill-opacity:0.600000}
    .fil25 {fill:#ECAC3E;fill-rule:nonzero;fill-opacity:0.600000}
    .fil22 {fill:#EDB556;fill-rule:nonzero;fill-opacity:0.600000}
    .fil21 {fill:white;fill-rule:nonzero;fill-opacity:0.600000}
    .fil34 {fill:white;fill-rule:nonzero;fill-opacity:0.701961}
    .fil43 {fill:white;fill-rule:nonzero;fill-opacity:0.749020}
    .fil27 {fill:#445964;fill-rule:nonzero;fill-opacity:0.800000}
    .fil26 {fill:#ECAC3E;fill-rule:nonzero;fill-opacity:0.800000}
    .fil24 {fill:white;fill-rule:nonzero;fill-opacity:0.800000}
    .fil18 {fill:#263138;fill-rule:nonzero;fill-opacity:0.901961}
    .fil29 {fill:#36464F;fill-rule:nonzero;fill-opacity:0.901961}
   ]]>
  </style>
 </defs>
 <g id="Layer_x0020_1">
  <metadata id="CorelCorpID_0Corel-Layer"/>
  <path class="fil0" d="M3109.78 2028.62c711.4,393.89 711.4,1032.51 -0.01,1426.41 -711.41,393.89 -1864.82,393.89 -2576.22,0.01 -711.4,-393.89 -711.4,-1032.52 0.01,-1426.41 711.4,-393.9 1864.82,-393.9 2576.22,-0.01z"/>
  <path class="fil1" d="M3461.36 2585.73l-1015.46 586.59c-7.53,4.35 -19.75,4.35 -27.28,0l-1464.15 -845.33c-7.53,-4.35 -7.53,-11.4 0,-15.75l1015.46 -586.59c7.54,-4.35 19.75,-4.35 27.28,0l1464.15 845.33c7.53,4.35 7.53,11.4 0,15.75z"/>
  <path class="fil1" d="M1532.94 3397.32c238.22,-137.53 238.22,-360.52 0,-498.05 -238.22,-137.53 -624.44,-137.53 -862.65,0 -238.22,137.53 -238.22,360.52 0,498.05 238.22,137.53 624.44,137.53 862.65,0z"/>
  <path class="fil1" d="M2183.86 2935.99c187.51,-108.26 187.51,-283.78 0,-392.03 -187.51,-108.26 -491.51,-108.26 -679.02,0 -187.51,108.26 -187.51,283.78 0,392.03 187.51,108.26 491.51,108.26 679.02,0z"/>
  <path class="fil1" d="M3125.28 3234.54c117.7,-67.95 117.7,-178.13 0,-246.08 -117.7,-67.95 -308.53,-67.95 -426.23,0 -117.7,67.95 -117.7,178.13 0,246.08 117.7,67.95 308.53,67.95 426.23,0z"/>
  <g id="_1858801113728">
   <g>
    <g>
     <path class="fil2" d="M2468.03 2124.4l0 901.33c0,5.8 -4.07,12.85 -9.09,15.75l-19.35 11.16c-5.02,2.9 -13.16,2.9 -18.19,-0l-19.34 -11.16c-5.02,-2.9 -9.09,-9.95 -9.09,-15.75l0 -901.33c0,-5.8 4.07,-8.15 9.09,-5.25l19.34 11.16c5.02,2.9 13.17,2.9 18.19,0l19.34 -11.16c5.02,-2.9 9.09,-0.55 9.09,5.25z"/>
     <path class="fil3" d="M2421.4 3052.65l-19.34 -11.16c-5.02,-2.9 -9.09,-9.95 -9.09,-15.75l0 -901.33c0,-5.8 4.07,-8.15 9.09,-5.25l19.34 11.16c5.02,2.9 9.09,9.95 9.09,15.75l-0 901.33c0,5.8 -4.07,8.15 -9.1,5.25z"/>
    </g>
    <g>
     <path class="fil2" d="M3292.75 1647.96l0 901.33c0,5.8 -4.07,12.85 -9.09,15.75l-19.35 11.16c-5.02,2.9 -13.17,2.9 -18.19,0l-19.34 -11.16c-5.02,-2.9 -9.09,-9.95 -9.09,-15.75l0 -901.33c0,-5.8 4.07,-8.15 9.1,-5.25l19.34 11.16c5.02,2.9 13.17,2.9 18.19,0l19.34 -11.16c5.02,-2.9 9.09,-0.55 9.09,5.25z"/>
     <path class="fil3" d="M3246.11 2576.21l-19.34 -11.16c-5.02,-2.9 -9.09,-9.95 -9.09,-15.75l0 -901.33c0,-5.8 4.07,-8.15 9.1,-5.25l19.34 11.16c5.02,2.9 9.09,9.95 9.09,15.75l-0 901.33c0,5.8 -4.07,8.15 -9.1,5.25z"/>
    </g>
    <g>
     <path class="fil2" d="M1357.35 1483.47l0 901.33c0,5.8 -4.07,12.85 -9.09,15.75l-19.35 11.16c-5.02,2.9 -13.17,2.9 -18.19,0l-19.34 -11.16c-5.03,-2.9 -9.1,-9.95 -9.1,-15.75l0 -901.33c0,-5.8 4.07,-8.15 9.1,-5.25l19.34 11.17c5.02,2.9 13.17,2.9 18.19,0l19.34 -11.16c5.02,-2.9 9.09,-0.55 9.09,5.25z"/>
     <path class="fil3" d="M1310.72 2411.71l-19.34 -11.16c-5.03,-2.9 -9.1,-9.95 -9.1,-15.75l0 -901.33c0,-5.8 4.07,-8.15 9.1,-5.25l19.34 11.17c5.02,2.9 9.09,9.95 9.09,15.75l-0 901.33c0,5.8 -4.07,8.15 -9.09,5.25z"/>
    </g>
    <g>
     <g>
      <path class="fil4" d="M3472.19 1712.08l0 -6.6c0,-10.56 -7.41,-23.4 -16.55,-28.67l-1454.36 -838.85c-9.14,-5.28 -23.97,-5.28 -33.11,0l-894.7 516.73c-9.14,5.28 -16.55,18.11 -16.55,28.67l0 6.6c0,10.56 7.41,23.39 16.55,28.67l1454.36 838.85c9.14,5.28 23.97,5.28 33.11,0l894.7 -516.73c9.14,-5.28 16.56,-18.12 16.56,-28.67z"/>
      <path class="fil5" d="M3472.19 1712.08l0 -6.6c0,-10.56 -7.41,-23.4 -16.55,-28.67l-1454.36 -838.85c-9.14,-5.28 -23.97,-5.28 -33.11,0l-894.7 516.73c-9.14,5.28 -16.55,18.11 -16.55,28.67l0 6.6c0,10.56 7.41,23.39 16.55,28.67l1454.36 838.85c9.14,5.28 23.97,5.28 33.11,0l894.7 -516.73c9.14,-5.28 16.56,-18.12 16.56,-28.67z"/>
     </g>
     <g>
      <path class="fil4" d="M2544.39 2216.64l0 44.86c5.99,0 11.98,-1.4 16.57,-3.95l894.66 -516.75c9.17,-5.35 16.57,-18.1 16.57,-28.67l0 -6.63c0,-9.3 -5.73,-20.52 -13.51,-26.51 5.99,5.1 4.97,12.23 -3.06,16.95l-894.66 516.75c-4.59,2.68 -10.58,3.95 -16.57,3.95z"/>
      <path class="fil6" d="M2544.39 2216.64l0 44.86c5.99,0 11.98,-1.4 16.57,-3.95l894.66 -516.75c9.17,-5.35 16.57,-18.1 16.57,-28.67l0 -6.63c0,-9.3 -5.73,-20.52 -13.51,-26.51 5.99,5.1 4.97,12.23 -3.06,16.95l-894.66 516.75c-4.59,2.68 -10.58,3.95 -16.57,3.95z"/>
     </g>
     <g>
      <path class="fil7" d="M3455.63 1695.92l-894.7 516.73c-9.14,5.28 -23.96,5.28 -33.11,0l-1454.36 -838.85c-9.14,-5.28 -9.14,-13.84 0,-19.12l894.7 -516.73c9.14,-5.28 23.97,-5.28 33.11,0l1454.36 838.85c9.14,5.28 9.14,13.84 0,19.12z"/>
      <path class="fil8" d="M3455.63 1695.92l-894.7 516.73c-9.14,5.28 -23.96,5.28 -33.11,0l-1454.36 -838.85c-9.14,-5.28 -9.14,-13.84 0,-19.12l894.7 -516.73c9.14,-5.28 23.97,-5.28 33.11,0l1454.36 838.85c9.14,5.28 9.14,13.84 0,19.12z"/>
     </g>
    </g>
   </g>
   <g>
    <path class="fil9" d="M2434.48 1684.64l-211.98 122.74c-6.56,3.79 -17.19,3.8 -23.75,0.02l-626.25 -361.07c-6.56,-3.78 -6.57,-9.93 -0.01,-13.72l211.98 -122.74c6.56,-3.8 17.19,-3.81 23.75,-0.02l626.25 361.07c6.56,3.78 6.57,9.93 0.01,13.72z"/>
    <g>
     <g>
      <path class="fil10" d="M1585.33 1410.84c-0,-2.48 1.64,-4.97 4.92,-6.86l199.15 -114.96c6.56,-3.78 17.19,-3.78 23.75,0.01l607.66 351.41c3.28,1.9 4.91,4.38 4.91,6.85 -0,2.48 -0,18.41 0,20.88 0,2.49 -1.64,4.97 -4.93,6.86l-199.05 114.95c-6.57,3.77 -17.21,3.76 -23.77,-0.03l-607.73 -350.85c-3.26,-1.89 -4.9,-4.36 -4.92,-6.83 -0.01,-2.49 0,-18.96 0,-21.44z"/>
      <path class="fil2" d="M2221.75 1768.57l199.05 -114.43c6.57,-3.78 6.57,-9.91 0.02,-13.7l-607.66 -351.41c-6.56,-3.79 -17.19,-3.79 -23.75,-0.01l-199.15 114.96c-6.56,3.79 -6.56,9.93 0,13.72l607.73 350.85c6.56,3.79 17.2,3.8 23.77,0.02z"/>
      <path class="fil10" d="M2210.63 1771.39l0 21.35c4.02,-0.09 8.05,-1.01 11.16,-2.74l198.98 -114.94c3.29,-1.92 4.94,-4.39 4.94,-6.86l0 -20.94c0,2.47 -1.65,4.94 -4.94,6.86l-198.98 114.49c-3.11,1.74 -7.13,2.7 -11.16,2.79z"/>
     </g>
     <path class="fil0" d="M1622.21 1412.37c0,-0.12 0.09,-0.22 0.14,-0.25l19.7 -11.38 26.74 15.44 -19.83 11.76 -26.71 -15.42 -0.05 -0.15zm30.86 -17.81l0 0c0,-0.13 0.09,-0.23 0.14,-0.25l19.71 -11.38 21 12.12 -19.84 11.77 -20.98 -12.11 -0.03 -0.15zm6.5 39.38l0 0c0,-0.13 0.09,-0.22 0.14,-0.25l19.72 -11.39 20.99 12.12 -19.84 11.77 -20.96 -12.1 -0.05 -0.15zm24.36 -57.19l0 0c0,-0.13 0.09,-0.23 0.14,-0.26l19.7 -11.37 33.92 19.59 -19.83 11.77 -33.91 -19.58 -0.03 -0.14zm0.76 36.07l0 0c0,-0.13 0.09,-0.23 0.14,-0.25l19.71 -11.38 16.69 9.63 -19.84 11.77 -16.66 -9.62 -0.03 -0.14zm6.5 39.38l0 0c0,-0.13 0.09,-0.23 0.14,-0.25l19.7 -11.38 21.01 12.12 -19.84 11.76 -20.96 -12.1 -0.05 -0.15zm20.79 -23.61l0 0c0,-0.13 0.11,-0.24 0.16,-0.27l19.7 -11.37 16.67 9.64 -19.83 11.76 -16.66 -9.62 -0.05 -0.14zm2.82 -69.64l0 0c0,-0.14 0.09,-0.23 0.14,-0.26l19.71 -11.37 26.74 15.44 -19.84 11.77 -26.71 -15.43 -0.03 -0.14zm8.01 111.51l0 0c0,-0.13 0.09,-0.23 0.14,-0.25l19.7 -11.38 151.74 87.6 -19.86 11.77 -151.7 -87.59 -0.03 -0.15zm5.68 -67.98l0 0c0,-0.13 0.09,-0.23 0.14,-0.26l19.71 -11.37 16.67 9.63 -19.83 11.76 -16.66 -9.61 -0.03 -0.15zm10.81 41.87l0 0c0,-0.13 0.1,-0.23 0.14,-0.26l19.7 -11.37 16.68 9.64 -19.83 11.76 -16.66 -9.62 -0.03 -0.15zm6.36 -103.21l0 0c0,-0.13 0.09,-0.23 0.14,-0.26l19.71 -11.38 16.67 9.64 -19.83 11.77 -16.66 -9.62 -0.03 -0.15zm6.49 39.38l0 0c0,-0.13 0.1,-0.23 0.14,-0.26l19.71 -11.38 16.69 9.64 -19.85 11.76 -16.66 -9.62 -0.03 -0.14zm3.64 37.72l0 0c0,-0.13 0.09,-0.23 0.14,-0.26l19.71 -11.37 16.67 9.63 -19.84 11.77 -16.64 -9.62 -0.03 -0.15zm10.81 41.87l0 0c0,-0.13 0.09,-0.23 0.14,-0.26l19.71 -11.37 16.67 9.64 -19.84 11.76 -16.64 -9.62 -0.03 -0.15zm6.36 -103.21l0 0c0,-0.13 0.09,-0.23 0.14,-0.26l19.71 -11.37 16.67 9.63 -19.83 11.77 -16.66 -9.62 -0.03 -0.14zm6.5 39.38l0 0c0,-0.13 0.09,-0.22 0.14,-0.25l19.7 -11.38 16.69 9.63 -19.84 11.77 -16.66 -9.62 -0.03 -0.15zm3.62 37.73l0 0c0,-0.13 0.11,-0.23 0.15,-0.26l19.71 -11.39 16.67 9.63 -19.84 11.77 -16.64 -9.62 -0.05 -0.14zm0.03 -114.48l0 0c0,-0.13 0.09,-0.23 0.14,-0.26l19.71 -11.38 20.99 12.13 -19.85 11.76 -20.96 -12.11 -0.03 -0.14zm10.8 156.35l0 0c0,-0.13 0.09,-0.23 0.14,-0.26l19.71 -11.37 16.67 9.64 -19.83 11.76 -16.66 -9.62 -0.03 -0.15zm6.36 -103.21l0 0c0,-0.14 0.09,-0.23 0.14,-0.26l19.71 -11.37 16.67 9.63 -19.83 11.76 -16.66 -9.62 -0.03 -0.14zm6.5 39.38l0 0c0,-0.13 0.09,-0.23 0.14,-0.26l19.7 -11.38 16.69 9.64 -19.84 11.77 -16.66 -9.62 -0.03 -0.14zm3.64 37.72l0 0c0,-0.13 0.09,-0.23 0.14,-0.25l19.7 -11.38 16.68 9.64 -19.85 11.77 -16.64 -9.62 -0.03 -0.15zm10.81 41.87l0 0c0,-0.13 0.1,-0.23 0.14,-0.26l19.7 -11.37 16.67 9.64 -19.83 11.76 -16.65 -9.62 -0.03 -0.15zm5.38 -147.01l0 0c0,-0.13 0.09,-0.23 0.14,-0.25l19.72 -11.38 16.67 9.64 -19.84 11.77 -16.66 -9.62 -0.03 -0.15zm0.96 43.8l0 0c0,-0.13 0.11,-0.24 0.16,-0.27l19.7 -11.37 16.67 9.63 -19.84 11.77 -16.64 -9.62 -0.05 -0.14zm6.51 39.38l0 0c0,-0.13 0.09,-0.23 0.14,-0.26l19.7 -11.38 16.69 9.64 -19.84 11.76 -16.66 -9.62 -0.03 -0.14zm3.62 37.72l0 0c0,-0.13 0.11,-0.24 0.16,-0.27l19.7 -11.37 16.68 9.64 -19.84 11.77 -16.64 -9.62 -0.05 -0.14zm10.82 41.87l0 0c0,-0.13 0.11,-0.23 0.15,-0.26l19.71 -11.38 16.67 9.64 -19.84 11.77 -16.64 -9.62 -0.04 -0.14zm5.4 -147.01l0 0c0,-0.14 0.09,-0.24 0.14,-0.27l19.7 -11.37 16.69 9.63 -19.84 11.77 -16.66 -9.62 -0.03 -0.14zm0.96 43.79l0 0c0,-0.13 0.1,-0.22 0.14,-0.25l19.72 -11.38 16.68 9.64 -19.85 11.76 -16.64 -9.62 -0.05 -0.15zm6.52 39.39l0 0c0,-0.13 0.09,-0.23 0.14,-0.26l19.71 -11.38 16.69 9.63 -19.84 11.77 -16.66 -9.61 -0.03 -0.15zm3.62 37.72l0 0c0,-0.13 0.09,-0.23 0.14,-0.25l19.72 -11.38 16.67 9.64 -19.84 11.77 -16.64 -9.62 -0.05 -0.14zm10.83 41.87l0 0c0,-0.13 0.09,-0.23 0.14,-0.25l19.7 -11.38 16.67 9.64 -19.83 11.76 -16.66 -9.62 -0.03 -0.14zm5.38 -147.01l0 0c0,-0.13 0.09,-0.23 0.14,-0.26l19.7 -11.37 16.69 9.63 -19.84 11.77 -16.66 -9.62 -0.03 -0.15zm0.97 43.8l0 0c0,-0.13 0.09,-0.23 0.14,-0.26l19.71 -11.37 16.67 9.64 -19.84 11.76 -16.64 -9.62 -0.03 -0.15zm3.02 144.25l0 0c0,-0.13 0.09,-0.23 0.14,-0.26l19.7 -11.38 20.99 12.12 -19.84 11.77 -20.96 -12.11 -0.03 -0.14zm3.48 -104.87l0 0c0,-0.14 0.1,-0.23 0.14,-0.26l19.7 -11.38 16.69 9.64 -19.84 11.77 -16.66 -9.62 -0.03 -0.14zm3.62 37.71l0 0c0,-0.13 0.09,-0.22 0.14,-0.25l19.72 -11.38 16.67 9.64 -19.84 11.77 -16.64 -9.62 -0.05 -0.15zm10.83 41.87l0 0c0,-0.13 0.09,-0.23 0.14,-0.26l19.7 -11.37 16.67 9.64 -19.84 11.77 -16.64 -9.62 -0.03 -0.15zm5.38 -147.01l0 0c0,-0.13 0.1,-0.23 0.14,-0.25l19.71 -11.38 16.69 9.63 -19.84 11.77 -16.66 -9.62 -0.03 -0.14zm0.96 43.8l0 0c0,-0.13 0.11,-0.24 0.15,-0.27l19.71 -11.37 16.67 9.64 -19.84 11.77 -16.64 -9.62 -0.05 -0.14zm6.51 39.38l0 0c0,-0.14 0.09,-0.23 0.14,-0.26l19.7 -11.38 16.69 9.64 -19.84 11.76 -16.66 -9.62 -0.03 -0.14zm0.82 107.36l0 0c0,-0.13 0.11,-0.24 0.15,-0.27l19.71 -11.37 20.99 12.12 -19.83 11.77 -20.97 -12.11 -0.05 -0.14zm2.8 -69.64l0 0c0,-0.13 0.11,-0.24 0.15,-0.27l19.71 -11.37 16.67 9.64 -19.84 11.77 -16.65 -9.62 -0.05 -0.14zm10.81 41.87l0 0c0,-0.14 0.11,-0.24 0.15,-0.27l19.71 -11.37 16.67 9.64 -19.83 11.76 -16.66 -9.62 -0.05 -0.14zm6.36 -103.22l0 0c0,-0.13 0.09,-0.23 0.14,-0.25l19.72 -11.38 16.67 9.63 -19.84 11.77 -16.64 -9.62 -0.05 -0.15zm6.51 39.38l0 0c0,-0.13 0.09,-0.22 0.14,-0.25l19.71 -11.39 16.67 9.64 -19.83 11.76 -16.66 -9.62 -0.03 -0.15zm3.62 37.73l0 0c0,-0.13 0.09,-0.23 0.14,-0.26l19.72 -11.38 16.67 9.64 -19.84 11.77 -16.64 -9.62 -0.05 -0.14zm0.79 -114.05l0 0c0,-0.13 0.09,-0.23 0.14,-0.25l19.7 -11.38 16.69 9.63 -19.85 11.77 -16.66 -9.62 -0.03 -0.15zm0.73 186.17l0 0c0,-0.13 0.09,-0.23 0.14,-0.26l19.71 -11.37 21 12.12 -19.84 11.77 -20.97 -12.11 -0.03 -0.14zm9.3 -30.27l0 0c0,-0.13 0.09,-0.22 0.14,-0.25l19.72 -11.38 16.67 9.64 -19.84 11.77 -16.64 -9.62 -0.05 -0.15zm6.36 -103.21l0 0c0,-0.14 0.12,-0.25 0.15,-0.27l19.69 -11.36 16.69 9.62 -19.84 11.77 -16.64 -9.62 -0.04 -0.15zm6.51 39.38l0 0c0,-0.13 0.09,-0.23 0.14,-0.25l19.7 -11.38 16.69 9.64 -19.84 11.76 -16.66 -9.62 -0.03 -0.15zm3.62 37.73l0 0c0,-0.13 0.09,-0.23 0.14,-0.25l19.72 -11.38 16.67 9.64 -19.84 11.76 -16.64 -9.62 -0.05 -0.15zm0.79 -114.04l0 0c0,-0.13 0.09,-0.23 0.14,-0.25l19.7 -11.38 16.69 9.63 -19.84 11.77 -16.66 -9.62 -0.03 -0.15zm5.04 188.66l0 0c0,-0.13 0.09,-0.23 0.14,-0.26l19.7 -11.39 26.74 15.44 -19.85 11.77 -26.71 -15.42 -0.03 -0.15zm4.98 -32.74l0 0c0,-0.13 0.11,-0.23 0.15,-0.26l19.71 -11.38 52.6 30.37 -19.84 11.77 -52.57 -30.35 -0.05 -0.14zm6.36 -103.22l0 0c0,-0.13 0.09,-0.23 0.14,-0.26l19.72 -11.37 16.67 9.64 -19.84 11.77 -16.64 -9.62 -0.04 -0.15zm6.51 39.39l0 0c0,-0.13 0.09,-0.23 0.14,-0.26l19.71 -11.38 16.69 9.63 -19.85 11.77 -16.66 -9.62 -0.03 -0.14zm3.62 37.71l0 0c0,-0.12 0.09,-0.22 0.14,-0.25l19.72 -11.38 16.68 9.64 -19.84 11.77 -16.64 -9.62 -0.05 -0.15zm0.79 -114.03l0 0c0,-0.13 0.09,-0.23 0.14,-0.26l19.71 -11.38 16.69 9.64 -19.84 11.77 -16.66 -9.62 -0.03 -0.14zm16.38 52.69l0 0c0,-0.13 0.09,-0.23 0.14,-0.26l19.72 -11.37 16.67 9.64 -19.84 11.77 -16.64 -9.62 -0.05 -0.15zm4.46 145.09l0 0c0,-0.12 0.09,-0.22 0.14,-0.24l19.72 -11.39 16.67 9.64 -19.84 11.77 -16.64 -9.62 -0.05 -0.14zm2.06 -105.7l0 0c0,-0.13 0.09,-0.23 0.14,-0.26l19.71 -11.38 16.67 9.64 -19.83 11.76 -16.66 -9.62 -0.03 -0.14zm3.62 37.72l0 0c0,-0.12 0.09,-0.22 0.14,-0.24l19.72 -11.39 15.23 8.8c1.07,0.62 2.86,0.99 4.81,0.99 2.04,0 3.88,-0.37 5.04,-1.04l25.88 -14.95 19.55 11.3 -50.67 29.58 -39.66 -22.9 -0.05 -0.14zm0.79 -114.04l0 0c0,-0.13 0.09,-0.23 0.14,-0.25l19.7 -11.38 16.69 9.64 -19.84 11.77 -16.66 -9.62 -0.03 -0.14zm16.38 52.7l0 0c0,-0.13 0.09,-0.23 0.14,-0.25l19.7 -11.38 16.69 9.63 -19.84 11.76 -16.64 -9.62 -0.05 -0.15zm4.47 145.09l0 0c0,-0.14 0.09,-0.23 0.14,-0.26l19.7 -11.38 16.67 9.64 -19.84 11.76 -16.64 -9.62 -0.03 -0.14zm2.04 -105.7l0 0c0,-0.13 0.09,-0.23 0.14,-0.26l19.7 -11.38 16.68 9.64 -19.85 11.77 -16.64 -9.61 -0.03 -0.15zm16.29 -69.46l0 0c0,-0.13 0.09,-0.23 0.14,-0.26l19.7 -11.38 16.69 9.63 -19.85 11.77 -16.66 -9.62 -0.03 -0.14zm4.5 45.83l0 0c0,-0.13 0.09,-0.23 0.14,-0.26l19.7 -11.37 16.69 9.63 -19.84 11.77 -16.64 -9.62 -0.05 -0.15zm4.45 145.09l0 0c0,-0.13 0.09,-0.24 0.15,-0.27l19.71 -11.37 16.67 9.63 -19.84 11.77 -16.64 -9.62 -0.05 -0.14zm3.56 -33.58l0 0c0,-0.13 0.09,-0.23 0.14,-0.26l19.72 -11.37 16.67 9.64 -19.84 11.77 -16.66 -9.62 -0.03 -0.14zm14.79 -141.59l0 0c0,-0.13 0.09,-0.23 0.14,-0.26l19.71 -11.38 16.67 9.64 -19.83 11.77 -16.66 -9.62 -0.03 -0.15zm4.5 45.84l0 0c0,-0.13 0.09,-0.23 0.14,-0.26l19.71 -11.37 29.62 17.1 -19.85 11.77 -29.57 -17.09 -0.05 -0.15zm10.21 148.41l0 0c0,-0.13 0.09,-0.23 0.14,-0.25l19.7 -11.38 43.99 25.4 -19.84 11.77 -43.96 -25.38 -0.03 -0.14zm4.92 -104.04l0 0c0,-0.13 0.09,-0.23 0.14,-0.26l19.7 -11.37 16.69 9.64 -19.83 11.77 -16.67 -9.62 -0.03 -0.15zm7.67 -74.44l0 0c0,-0.13 0.09,-0.23 0.14,-0.26l19.7 -11.38 16.68 9.64 -19.83 11.77 -16.66 -9.62 -0.03 -0.14zm18.27 160.67l0 0c0,-0.14 0.09,-0.23 0.14,-0.26l19.7 -11.37 16.69 9.64 -19.83 11.77 -16.67 -9.62 -0.03 -0.15zm1.36 -70.47l0 0c0,-0.13 0.09,-0.23 0.14,-0.26l19.71 -11.37 16.69 9.63 -19.84 11.77 -16.66 -9.62 -0.03 -0.15zm3.55 -33.57l0 0c0,-0.13 0.1,-0.23 0.14,-0.26l19.71 -11.38 16.69 9.64 -19.84 11.77 -16.66 -9.62 -0.03 -0.15zm4.12 -40.86l0 0c0,-0.13 0.09,-0.23 0.14,-0.26l19.7 -11.38 16.67 9.64 -19.83 11.77 -16.66 -9.62 -0.03 -0.14zm14.71 194.24l0 0c0,-0.13 0.09,-0.23 0.14,-0.26l19.71 -11.37 16.69 9.63 -19.84 11.77 -16.66 -9.62 -0.03 -0.15zm3.56 -33.57l0 0c0,-0.13 0.09,-0.23 0.14,-0.26l19.71 -11.37 16.69 9.63 -19.85 11.77 -16.66 -9.62 -0.03 -0.15zm1.36 -70.47l0 0c0,-0.14 0.09,-0.23 0.14,-0.26l19.7 -11.37 16.69 9.64 -19.84 11.77 -16.66 -9.62 -0.03 -0.15zm2.2 36.89l0 0c0,-0.13 0.09,-0.23 0.14,-0.26l19.71 -11.38 16.67 9.64 -19.83 11.77 -16.66 -9.62 -0.03 -0.15zm1.36 -70.47l0 0c0,-0.13 0.09,-0.23 0.14,-0.26l19.7 -11.37 16.69 9.63 -19.84 11.77 -16.66 -9.62 -0.03 -0.15zm10.14 -37.38l0 0c0,-0.13 0.09,-0.23 0.14,-0.26l19.7 -11.38 16.69 9.64 -19.84 11.77 -16.66 -9.61 -0.03 -0.15zm8.68 190.76l0 0c0,-0.14 0.09,-0.23 0.14,-0.26l50.56 -29.19 16.69 9.63 -50.69 29.59 -16.67 -9.63 -0.03 -0.14zm3.56 -33.58l0 0c0,-0.13 0.09,-0.23 0.14,-0.26l19.7 -11.37 16.69 9.63 -19.84 11.77 -16.66 -9.62 -0.03 -0.15zm3.56 -33.57l0 0c0,-0.13 0.09,-0.23 0.14,-0.26l19.71 -11.38 16.67 9.64 -19.83 11.77 -16.66 -9.62 -0.03 -0.15zm1.36 -70.47l0 0c0,-0.14 0.09,-0.23 0.14,-0.26l19.7 -11.37 16.69 9.63 -19.84 11.77 -16.66 -9.62 -0.03 -0.14zm2.18 36.89l0 0c0,-0.13 0.09,-0.22 0.14,-0.25l19.72 -11.39 16.67 9.64 -19.84 11.77 -16.64 -9.61 -0.04 -0.15zm7.96 -74.27l0 0c0,-0.13 0.09,-0.23 0.14,-0.26l19.71 -11.38 16.69 9.64 -19.84 11.77 -16.66 -9.61 -0.03 -0.15zm15.79 123.61l0 0c0,-0.13 0.09,-0.23 0.14,-0.26l19.7 -11.38 16.68 9.64 -19.83 11.77 -16.66 -9.62 -0.03 -0.15zm3.54 -33.57l0 0c0,-0.13 0.09,-0.22 0.14,-0.25l19.72 -11.39 16.68 9.64 -19.85 11.77 -16.64 -9.61 -0.05 -0.15zm3.56 -33.58l0 0c0,-0.13 0.1,-0.23 0.14,-0.25l19.71 -11.38 16.69 9.63 -19.84 11.76 -16.64 -9.62 -0.05 -0.15zm4.41 -40.69l0 0c0,-0.14 0.09,-0.23 0.14,-0.26l19.71 -11.38 16.69 9.64 -19.84 11.76 -16.66 -9.62 -0.03 -0.14zm15.79 123.61l0 0c0,-0.14 0.09,-0.23 0.14,-0.26l50.56 -29.19 16.67 9.64 -50.67 29.59 -16.67 -9.63 -0.03 -0.14zm3.54 -33.58l0 0c0,-0.12 0.09,-0.22 0.14,-0.24l19.72 -11.39 16.67 9.64 -19.84 11.77 -16.64 -9.62 -0.04 -0.14zm3.56 -33.57l0 0c0,-0.12 0.09,-0.22 0.14,-0.24l19.71 -11.39 16.69 9.63 -19.84 11.77 -16.64 -9.62 -0.05 -0.15zm18.08 -41.95l0 0c0,-0.13 0.09,-0.23 0.14,-0.26l8.37 -4.94 16.69 9.63 -8.57 5.29 -16.6 -9.58 -0.03 -0.15zm9.22 57.71l0 0c0,-0.13 0.09,-0.23 0.14,-0.25l19.71 -11.38 16.69 9.63 -19.85 11.77 -16.64 -9.62 -0.05 -0.14zm18.08 -41.95l0 0c0,-0.13 0.1,-0.23 0.14,-0.26l8.37 -4.94 16.69 9.63 -8.57 5.28 -16.6 -9.57 -0.03 -0.15zm9.22 57.71l0 0c0,-0.13 0.09,-0.23 0.14,-0.25l19.71 -11.38 16.69 9.63 -19.84 11.77 -16.64 -9.62 -0.05 -0.15zm18.08 -41.95l0 0c0,-0.13 0.09,-0.23 0.14,-0.26l8.37 -4.94 16.69 9.63 -8.57 5.28 -16.59 -9.57 -0.03 -0.15zm27.28 15.77l0 0c0,-0.13 0.11,-0.24 0.15,-0.27l8.37 -4.94 16.69 9.64 -8.57 5.29 -16.6 -9.58 -0.05 -0.14z"/>
    </g>
   </g>
   <g>
    <polygon class="fil9" points="2924.29,1708.47 3110.77,1600.81 2178.4,1062.5 1991.92,1170.16 "/>
    <g>
     <g>
      <g>
       <path class="fil11" d="M2396.32 1533.21l-133.13 -76.97c-13.72,-7.93 -20.58,-18.31 -20.59,-28.69 0,-10.38 -0.06,-18.52 -0.06,-18.52l125.27 -71.1c7.32,-4.23 13.25,-14.5 13.25,-22.96l0 -164.13 232.52 134.37 0.01 164.13c0,8.45 -5.93,18.73 -13.25,22.95l-104.64 60.92c-27.45,15.84 -71.95,15.84 -99.39,-0z"/>
      </g>
      <path class="fil12" d="M2557.77 1478.4l0 18.44 42.61 -24.56c7.27,-4.21 13.24,-14.46 13.24,-22.95l0 -164.12 -44.3 -25.56c-0.92,11.25 -1.91,22.88 -2.83,34.2l31.06 17.98 0 128.23c0,8.49 -5.89,18.75 -13.24,22.95l-26.55 15.38z"/>
      <path class="fil13" d="M2597.57 1440.1c0,8.45 -5.93,18.73 -13.25,22.95l-88.59 51.65c-27.45,15.85 -71.95,15.85 -99.4,0.01l-133.19 -76.97c-27.45,-15.84 -27.45,-41.53 -0.01,-57.37l88.65 -51.69c7.32,-4.23 13.25,-14.5 13.25,-22.95l0 -128.25 232.53 134.36 0 128.26z"/>
      <path class="fil14" d="M2324.79 1344.29l0 -0.02 26.99 -15.58c7.32,-4.23 13.25,-14.5 13.25,-22.95l0 -128.25 232.53 134.36 0 128.26c0,8.45 -5.93,18.73 -13.25,22.95l-26.53 15.32 -233 -134.08z"/>
      <path class="fil14" d="M2242.58 1409.04c0,0 0,8.11 0,18.52 0,10.4 6.89,20.74 20.58,28.69l133.15 76.93c13.16,7.65 30.22,11.48 47.44,11.78l0 -18.44c-17.22,-0.23 -34.28,-4.21 -47.44,-11.78l-133.15 -77.01c-13.7,-7.88 -20.58,-18.29 -20.58,-28.69z"/>
     </g>
     <path class="fil3" d="M2970.92 1617.17c-8.58,4.96 -22.96,4.69 -32.1,-0.59 -114.32,-66 -784.96,-453.19 -899.26,-519.18 -9.15,-5.28 -16.56,-18.13 -16.56,-28.69l0 -787.11c0,-10.56 6.96,-23.14 15.54,-28.1 8.58,-4.96 22.96,-4.69 32.11,0.59l899.24 519.18c9.15,5.28 16.57,18.13 16.57,28.69l0.01 787.11c0,10.56 -6.96,23.15 -15.54,28.1z"/>
     <path class="fil2" d="M2938.81 1616.55l-899.25 -519.17c-9.15,-5.28 -16.57,-18.13 -16.57,-28.69l0 -787.11c0,-10.56 7.41,-14.85 16.57,-9.56l899.24 519.18c9.15,5.28 16.57,18.13 16.57,28.69l0.01 787.1c0,10.56 -7.42,14.84 -16.57,9.56z"/>
     <path class="fil12" d="M2941.25 1619.84c9.18,4.05 21.88,3.9 29.69,-0.61 8.57,-4.97 15.53,-17.52 15.53,-28.16l0 -88.53 -31.06 17.98 0 88.53c0,9.64 -6.12,14 -14.15,10.79z"/>
     <path class="fil15" d="M2955.38 1520.51l0 88.52c0,10.56 -7.42,14.84 -16.57,9.56l-899.25 -519.17c-9.15,-5.28 -16.57,-18.13 -16.57,-28.69l0 -88.52 932.38 538.3z"/>
     <path class="fil16" d="M2924.3 1453.17l-0.01 -622.97c0,-6.34 -4.45,-14.04 -9.94,-17.21l-850.33 -490.94c-5.49,-3.17 -9.94,-0.6 -9.94,5.74l-0.03 622.98c0,6.34 4.45,14.04 9.94,17.21l850.37 490.92c5.49,3.17 9.94,0.6 9.94,-5.74z"/>
     <path class="fil17" d="M2924.3 1453.17l-0.01 -622.97c0,-6.34 -4.45,-14.04 -9.94,-17.21l-850.33 -490.94c-5.49,-3.17 -9.94,-0.6 -9.94,5.74l-0.03 622.98c0,6.34 4.45,14.04 9.94,17.21l850.37 490.92c5.49,3.17 9.94,0.6 9.94,-5.74z"/>
     <path class="fil3" d="M2489.19 1285.21c8.59,4.96 15.54,17.01 15.54,26.92 0,9.91 -6.96,13.93 -15.54,8.97 -8.59,-4.96 -15.54,-17.01 -15.54,-26.92 0,-9.91 6.96,-13.93 15.54,-8.97z"/>
     <path class="fil10" d="M2950.51 803.5c2.98,5.2 4.82,11.09 4.9,16.37l0 700.66 31.06 -17.98 0 -700.58c0,-5.28 -1.91,-11.17 -4.9,-16.37l-31.06 17.9z"/>
    </g>
   </g>
   <g>
    <g>
     <path class="fil3" d="M2170.13 119.08c0.05,-0.52 0.1,-0.99 0.26,-1.46 -0.05,-0.1 0,-0.21 0.05,-0.31 0.05,-0.52 0.21,-0.99 0.36,-1.4 0.21,-0.73 0.52,-1.4 0.94,-2.03 0.1,-0.31 0.31,-0.57 0.52,-0.83 0.15,-0.21 0.26,-0.41 0.47,-0.57 0.31,-0.41 0.62,-0.73 1.04,-1.04 0,0 0.05,-0.05 0.1,-0.11 0.42,-0.31 0.89,-0.57 1.35,-0.78 2.86,-1.35 6.55,-0.99 10.67,1.35l1049.44 605.63c8.74,5.05 15.87,17.38 15.87,27.48l0 759.55c0,0.04 -0.01,0.09 -0.01,0.13l0 3.47c0,4.3 -2.4,7.74 -5.71,9.53 -0.23,0.15 -0.45,0.3 -0.67,0.45 -0.26,0.16 -0.52,0.31 -0.83,0.47 -0.41,0.21 -0.88,0.36 -1.35,0.47 -0.67,0.16 -1.35,0.26 -2.03,0.26 -1.61,0.05 -3.43,-0.47 -5.26,-1.51l-0.42 -0.24c-0.01,-0.01 -0.02,-0.01 -0.03,-0.02l-15.12 -8.73 -1033.87 -596.9c-8.74,-5.05 -15.87,-17.33 -15.87,-27.47l0 -763.4c0,-0.68 0.05,-1.35 0.11,-1.98z"/>
     <g>
      <g>
       <path class="fil16" d="M2175.23 110.54c2.86,-1.35 6.56,-0.99 10.67,1.35l1049.44 605.63c8.74,5.05 15.87,17.38 15.87,27.48l0 51.83 20.24 -11.86 0 -51.46c0,-10.09 -7.08,-22.37 -15.82,-27.42l-1049.49 -605.62c-4.53,-2.65 -8.59,-2.71 -11.5,-0.94 -2.86,1.72 -16.03,9.26 -19.41,11.03z"/>
      </g>
      <path class="fil16" d="M2170.06 120.95c0.06,-10.01 7.12,-14.06 15.84,-9.03l1049.44 605.62c8.76,5.06 15.85,17.35 15.85,27.46l-0.02 51.85 -1081.12 -623.87 0 -52.03z"/>
      <g>
       <path class="fil17" d="M2185.91 111.91l1049.42 605.62c4.34,2.54 8.32,6.83 11.17,11.77l20.14 -11.67c-2.84,-4.88 -6.74,-9.13 -11.03,-11.57l-1049.46 -605.62c-4.54,-2.64 -8.58,-2.69 -11.52,-0.94 -2.84,1.75 -16,9.22 -19.34,11.02 2.79,-1.34 6.53,-0.95 10.62,1.4z"/>
      </g>
      <path class="fil9" d="M3271.47 785.02l-0.01 -51.54c0,-5.14 -1.88,-10.82 -4.82,-15.86l-20.19 11.62c2.94,4.98 4.73,10.62 4.73,15.75l0 51.84 20.29 -11.82z"/>
     </g>
     <g>
      <path class="fil3" d="M3215.45 728.48c4.94,2.86 8.96,11.35 8.96,18.96 0,7.62 -4.01,11.47 -8.96,8.62 -4.95,-2.86 -8.96,-11.34 -8.96,-18.96 0,-7.62 4.01,-11.48 8.96,-8.62z"/>
      <path class="fil3" d="M3183.2 709.83c4.95,2.86 8.96,11.35 8.96,18.96 0,7.61 -4.01,11.47 -8.96,8.62 -4.95,-2.86 -8.96,-11.34 -8.96,-18.96 0,-7.62 4.01,-11.48 8.96,-8.62z"/>
      <path class="fil3" d="M3150.95 691.18c4.95,2.85 8.96,11.34 8.96,18.96 0,7.62 -4.01,11.48 -8.96,8.62 -4.95,-2.85 -8.96,-11.35 -8.96,-18.96 0,-7.62 4.01,-11.47 8.96,-8.62z"/>
     </g>
     <path class="fil18" d="M3245.5 1517.74l0.82 -0.46 16.71 -9.67c4.52,-2.57 7.56,-7.15 8.28,-12.29 0.1,-0.77 0.15,-1.54 0.15,-2.31l0 -708.04 -20.26 11.88 0 711.28c0,3.96 -2,7.2 -4.94,9 -0.15,0.15 -0.36,0.26 -0.51,0.36 -0.05,0.05 -0.05,0.1 -0.1,0.1l-0.15 0.15z"/>
    </g>
    <g>
     <g>
      <path class="fil19" d="M2491.51 443.29l221.25 127.5c3.11,1.8 5.63,5.98 5.63,9.35 0,3.37 -2.52,4.64 -5.63,2.85l-221.25 -127.5c-3.11,-1.79 -5.63,-5.98 -5.63,-9.35 0,-3.37 2.52,-4.64 5.63,-2.85z"/>
      <path class="fil19" d="M2576.06 687.35l83.87 48.23c3.11,1.8 5.63,5.98 5.63,9.35 0,3.37 -2.52,4.64 -5.63,2.85l-83.87 -48.23c-3.11,-1.8 -5.63,-5.98 -5.63,-9.35 0,-3.37 2.52,-4.65 5.63,-2.85z"/>
      <path class="fil19" d="M2576.06 736.16l83.87 48.23c3.11,1.8 5.63,5.99 5.63,9.35 0,3.37 -2.52,4.64 -5.63,2.85l-83.87 -48.23c-3.11,-1.8 -5.63,-5.98 -5.63,-9.35 0,-3.37 2.52,-4.65 5.63,-2.85z"/>
      <path class="fil19" d="M2734.6 583.39l442.96 255.11c3.11,1.8 5.63,5.98 5.63,9.35 0,3.37 -2.52,4.65 -5.63,2.85l-442.96 -255.11c-3.11,-1.79 -5.63,-5.98 -5.63,-9.35 0,-3.37 2.52,-4.64 5.63,-2.85z"/>
      <path class="fil19" d="M2577.88 1029.63l134.88 78.04c3.11,1.8 5.63,5.98 5.63,9.35 0,3.37 -2.52,4.64 -5.63,2.85l-134.88 -78.04c-3.11,-1.79 -5.63,-5.98 -5.64,-9.35 0,-3.37 2.52,-4.65 5.64,-2.85z"/>
      <path class="fil19" d="M2734.6 1120.28l442.96 255.43c3.11,1.79 5.63,5.98 5.63,9.35 0,3.37 -2.52,4.65 -5.63,2.85l-442.96 -255.43c-3.11,-1.8 -5.63,-5.98 -5.63,-9.35 0,-3.37 2.52,-4.65 5.63,-2.85z"/>
      <g>
       <path class="fil19" d="M2491.51 492.21l111.44 64.04c3.11,1.79 5.63,5.98 5.63,9.35 0,3.37 -2.52,4.64 -5.63,2.85l-111.44 -64.03c-3.11,-1.8 -5.63,-5.99 -5.63,-9.35 0,-3.37 2.52,-4.65 5.63,-2.85z"/>
       <path class="fil20" d="M2491.51 492.21l111.44 64.04c3.11,1.79 5.63,5.98 5.63,9.35 0,3.37 -2.52,4.64 -5.63,2.85l-111.44 -64.03c-3.11,-1.8 -5.63,-5.99 -5.63,-9.35 0,-3.37 2.52,-4.65 5.63,-2.85z"/>
      </g>
      <g>
       <path class="fil19" d="M2491.51 540.93l52.14 30.07c3.11,1.8 5.63,5.98 5.63,9.35 0,3.37 -2.52,4.64 -5.63,2.85l-52.14 -30.07c-3.11,-1.79 -5.63,-5.98 -5.63,-9.35 0,-3.37 2.52,-4.64 5.63,-2.85z"/>
       <path class="fil20" d="M2491.51 540.93l52.14 30.07c3.11,1.8 5.63,5.98 5.63,9.35 0,3.37 -2.52,4.64 -5.63,2.85l-52.14 -30.07c-3.11,-1.79 -5.63,-5.98 -5.63,-9.35 0,-3.37 2.52,-4.64 5.63,-2.85z"/>
      </g>
      <g>
       <path class="fil19" d="M2491.51 638.55l52.14 30.07c3.11,1.8 5.63,5.98 5.63,9.35 0,3.37 -2.52,4.64 -5.63,2.85l-52.14 -30.07c-3.11,-1.79 -5.63,-5.98 -5.63,-9.35 0,-3.37 2.52,-4.65 5.63,-2.85z"/>
       <path class="fil20" d="M2491.51 638.55l52.14 30.07c3.11,1.8 5.63,5.98 5.63,9.35 0,3.37 -2.52,4.64 -5.63,2.85l-52.14 -30.07c-3.11,-1.79 -5.63,-5.98 -5.63,-9.35 0,-3.37 2.52,-4.65 5.63,-2.85z"/>
      </g>
      <g>
       <path class="fil19" d="M2491.51 687.36l52.14 30.07c3.11,1.8 5.63,5.98 5.63,9.35 0,3.37 -2.52,4.64 -5.63,2.85l-52.14 -30.07c-3.11,-1.79 -5.63,-5.98 -5.63,-9.35 0,-3.37 2.52,-4.64 5.63,-2.85z"/>
       <path class="fil20" d="M2491.51 687.36l52.14 30.07c3.11,1.8 5.63,5.98 5.63,9.35 0,3.37 -2.52,4.64 -5.63,2.85l-52.14 -30.07c-3.11,-1.79 -5.63,-5.98 -5.63,-9.35 0,-3.37 2.52,-4.64 5.63,-2.85z"/>
      </g>
      <g>
       <path class="fil19" d="M2624.79 568.85l66.84 38.71c3.11,1.8 5.63,5.98 5.63,9.35 0,3.37 -2.52,4.64 -5.63,2.85l-66.84 -38.71c-3.11,-1.8 -5.63,-5.98 -5.63,-9.35 0,-3.37 2.52,-4.65 5.63,-2.85z"/>
       <path class="fil20" d="M2624.79 568.85l66.84 38.71c3.11,1.8 5.63,5.98 5.63,9.35 0,3.37 -2.52,4.64 -5.63,2.85l-66.84 -38.71c-3.11,-1.8 -5.63,-5.98 -5.63,-9.35 0,-3.37 2.52,-4.65 5.63,-2.85z"/>
      </g>
      <g>
       <path class="fil19" d="M2728.14 921.72l449.42 258.76c3.11,1.8 5.63,5.98 5.63,9.35 0,3.37 -2.52,4.64 -5.63,2.85l-449.42 -258.75c-3.11,-1.8 -5.63,-5.98 -5.63,-9.35 0,-3.37 2.52,-4.65 5.63,-2.85z"/>
      </g>
      <g>
       <path class="fil19" d="M3110.73 1092.87l66.84 38.71c3.11,1.8 5.63,5.98 5.63,9.35 0,3.37 -2.52,4.64 -5.63,2.85l-66.84 -38.71c-3.11,-1.8 -5.63,-5.98 -5.63,-9.35 0,-3.37 2.52,-4.65 5.63,-2.85z"/>
      </g>
      <g>
       <path class="fil19" d="M2639.47 821.52l449.43 258.75c3.11,1.8 5.63,5.98 5.63,9.35 0,3.37 -2.52,4.65 -5.63,2.85l-449.42 -258.75c-3.11,-1.8 -5.64,-5.98 -5.64,-9.35 0,-3.37 2.52,-4.65 5.63,-2.85z"/>
      </g>
      <g>
       <path class="fil19" d="M2576.05 589.74l111.45 64.04c3.11,1.8 5.63,5.98 5.63,9.35 0,3.37 -2.52,4.65 -5.63,2.85l-111.45 -64.04c-3.11,-1.8 -5.63,-5.98 -5.63,-9.35 0,-3.37 2.52,-4.65 5.63,-2.85z"/>
       <path class="fil20" d="M2576.05 589.74l111.45 64.04c3.11,1.8 5.63,5.98 5.63,9.35 0,3.37 -2.52,4.65 -5.63,2.85l-111.45 -64.04c-3.11,-1.8 -5.63,-5.98 -5.63,-9.35 0,-3.37 2.52,-4.65 5.63,-2.85z"/>
      </g>
      <g>
       <path class="fil19" d="M2709.33 666.38l464.91 268.96c3.11,1.8 5.63,5.98 5.63,9.35 0,3.37 -2.52,4.65 -5.63,2.85l-464.91 -268.95c-3.11,-1.8 -5.63,-5.98 -5.63,-9.35 0,-3.37 2.52,-4.65 5.63,-2.85z"/>
       <path class="fil20" d="M2709.33 666.38l464.91 268.96c3.11,1.8 5.63,5.98 5.63,9.35 0,3.37 -2.52,4.65 -5.63,2.85l-464.91 -268.95c-3.11,-1.8 -5.63,-5.98 -5.63,-9.35 0,-3.37 2.52,-4.65 5.63,-2.85z"/>
      </g>
      <path class="fil19" d="M2576.06 883.6l601.51 346.87c3.11,1.8 5.63,5.98 5.63,9.35 0,3.37 -2.52,4.65 -5.63,2.85l-601.51 -346.88c-3.11,-1.8 -5.63,-5.98 -5.63,-9.35 0,-3.37 2.52,-4.65 5.63,-2.85z"/>
      <g>
       <path class="fil19" d="M2491.51 834.81l52.14 30.07c3.11,1.8 5.63,5.98 5.63,9.35 0,3.37 -2.52,4.65 -5.63,2.85l-52.14 -30.07c-3.11,-1.8 -5.63,-5.98 -5.63,-9.35 0,-3.37 2.52,-4.64 5.63,-2.85z"/>
       <path class="fil20" d="M2491.51 834.81l52.14 30.07c3.11,1.8 5.63,5.98 5.63,9.35 0,3.37 -2.52,4.65 -5.63,2.85l-52.14 -30.07c-3.11,-1.8 -5.63,-5.98 -5.63,-9.35 0,-3.37 2.52,-4.64 5.63,-2.85z"/>
      </g>
      <path class="fil19" d="M2576.06 932.4l601.51 346.88c3.11,1.8 5.63,5.98 5.63,9.35 0,3.37 -2.52,4.65 -5.63,2.85l-601.51 -346.88c-3.11,-1.8 -5.63,-5.98 -5.63,-9.35 0,-3.37 2.52,-4.64 5.63,-2.85z"/>
      <g>
       <path class="fil19" d="M2491.51 883.6l52.14 30.07c3.11,1.79 5.63,5.98 5.63,9.35 0,3.37 -2.52,4.65 -5.63,2.85l-52.14 -30.07c-3.11,-1.8 -5.63,-5.98 -5.63,-9.35 0,-3.37 2.52,-4.65 5.63,-2.85z"/>
       <path class="fil20" d="M2491.51 883.6l52.14 30.07c3.11,1.79 5.63,5.98 5.63,9.35 0,3.37 -2.52,4.65 -5.63,2.85l-52.14 -30.07c-3.11,-1.8 -5.63,-5.98 -5.63,-9.35 0,-3.37 2.52,-4.65 5.63,-2.85z"/>
      </g>
      <path class="fil19" d="M2576.06 981.19l601.51 346.87c3.11,1.8 5.63,5.98 5.63,9.35 0,3.37 -2.52,4.65 -5.63,2.85l-601.51 -346.88c-3.11,-1.8 -5.63,-5.98 -5.63,-9.35 0,-3.37 2.52,-4.65 5.63,-2.85z"/>
      <g>
       <path class="fil19" d="M2491.51 932.4l52.14 30.07c3.11,1.8 5.63,5.98 5.63,9.35 0,3.37 -2.52,4.65 -5.63,2.85l-52.14 -30.07c-3.11,-1.8 -5.63,-5.98 -5.63,-9.35 0,-3.37 2.52,-4.64 5.63,-2.85z"/>
       <path class="fil20" d="M2491.51 932.4l52.14 30.07c3.11,1.8 5.63,5.98 5.63,9.35 0,3.37 -2.52,4.65 -5.63,2.85l-52.14 -30.07c-3.11,-1.8 -5.63,-5.98 -5.63,-9.35 0,-3.37 2.52,-4.64 5.63,-2.85z"/>
      </g>
     </g>
     <g>
      <path class="fil21" d="M2410.23 394.34l30.65 17.7c3.07,1.77 5.57,6.09 5.57,9.64l0 11.27c0,3.55 -2.49,4.99 -5.57,3.21l-30.64 -17.69c-3.07,-1.78 -5.57,-6.09 -5.57,-9.64l-0 -11.27c-0,-3.55 2.49,-4.99 5.56,-3.21z"/>
      <path class="fil21" d="M2410.23 443.61l30.65 17.7c3.07,1.77 5.57,6.09 5.57,9.64l0 11.27c0,3.55 -2.49,4.99 -5.57,3.21l-30.64 -17.69c-3.07,-1.78 -5.57,-6.09 -5.57,-9.64l-0 -11.27c-0,-3.55 2.49,-4.99 5.56,-3.22z"/>
      <path class="fil21" d="M2410.23 492.89l30.65 17.69c3.07,1.78 5.57,6.09 5.57,9.64l0 11.27c0,3.55 -2.49,4.99 -5.57,3.21l-30.64 -17.69c-3.07,-1.77 -5.57,-6.09 -5.57,-9.64l-0 -11.27c-0,-3.55 2.49,-4.99 5.56,-3.21z"/>
      <path class="fil21" d="M2410.23 542.16l30.65 17.69c3.07,1.78 5.57,6.09 5.57,9.64l0 11.27c0,3.55 -2.49,4.99 -5.57,3.21l-30.64 -17.69c-3.07,-1.77 -5.57,-6.09 -5.57,-9.64l-0 -11.27c-0,-3.55 2.49,-4.99 5.56,-3.21z"/>
      <path class="fil21" d="M2410.23 591.43l30.65 17.69c3.07,1.78 5.57,6.09 5.57,9.64l0 11.27c0,3.55 -2.49,4.99 -5.57,3.21l-30.64 -17.69c-3.07,-1.77 -5.57,-6.09 -5.57,-9.64l-0 -11.27c-0,-3.55 2.49,-4.99 5.56,-3.21z"/>
      <path class="fil21" d="M2410.23 640.7l30.65 17.69c3.07,1.78 5.57,6.09 5.57,9.64l0 11.27c0,3.55 -2.49,4.99 -5.57,3.21l-30.64 -17.69c-3.07,-1.78 -5.57,-6.09 -5.57,-9.64l-0 -11.27c-0,-3.55 2.49,-4.99 5.56,-3.21z"/>
      <path class="fil21" d="M2410.23 689.97l30.65 17.69c3.07,1.78 5.57,6.09 5.57,9.64l0 11.27c0,3.55 -2.49,4.99 -5.57,3.21l-30.64 -17.69c-3.07,-1.78 -5.57,-6.09 -5.57,-9.64l-0 -11.27c-0,-3.55 2.49,-4.99 5.56,-3.21z"/>
      <path class="fil21" d="M2410.23 739.24l30.65 17.69c3.07,1.78 5.57,6.09 5.57,9.64l0 11.27c0,3.55 -2.49,4.99 -5.57,3.21l-30.64 -17.69c-3.07,-1.78 -5.57,-6.09 -5.57,-9.64l-0 -11.27c-0,-3.55 2.49,-4.99 5.56,-3.21z"/>
      <path class="fil21" d="M2410.23 788.52l30.65 17.69c3.07,1.78 5.57,6.09 5.57,9.64l0 11.27c0,3.55 -2.49,4.99 -5.57,3.21l-30.64 -17.69c-3.07,-1.78 -5.57,-6.09 -5.57,-9.64l-0 -11.26c-0,-3.55 2.49,-4.99 5.56,-3.22z"/>
      <path class="fil21" d="M2410.23 837.79l30.65 17.7c3.07,1.77 5.57,6.09 5.57,9.64l0 11.27c0,3.55 -2.49,4.99 -5.57,3.21l-30.64 -17.69c-3.07,-1.78 -5.57,-6.09 -5.57,-9.64l-0 -11.27c-0,-3.55 2.49,-4.99 5.56,-3.22z"/>
      <path class="fil21" d="M2410.23 887.06l30.65 17.7c3.07,1.77 5.57,6.09 5.57,9.64l0 11.27c0,3.55 -2.49,4.99 -5.57,3.21l-30.64 -17.69c-3.07,-1.77 -5.57,-6.09 -5.57,-9.64l-0 -11.27c-0,-3.55 2.49,-4.99 5.56,-3.22z"/>
      <path class="fil21" d="M2410.23 936.33l30.65 17.69c3.07,1.78 5.57,6.09 5.57,9.64l0 11.27c0,3.55 -2.49,4.99 -5.57,3.21l-30.64 -17.69c-3.07,-1.77 -5.57,-6.09 -5.57,-9.64l-0 -11.27c-0,-3.55 2.49,-4.99 5.56,-3.21z"/>
     </g>
     <g>
      <path class="fil2" d="M2206.92 234.29l165.73 95.68c6.15,3.55 11.13,12.18 11.13,19.28l0 191.37c0,7.1 -4.98,9.98 -11.13,6.43l-165.73 -95.69c-6.15,-3.55 -11.13,-12.18 -11.13,-19.29l0 -191.36c0,-7.1 4.98,-9.98 11.13,-6.43z"/>
      <g>
       <g>
        <path class="fil1" d="M2222.3 423.99l15.26 8.82c3.11,1.8 5.63,5.98 5.63,9.35 0,3.37 -2.52,4.64 -5.63,2.85l-15.26 -8.82c-3.11,-1.8 -5.63,-5.98 -5.63,-9.35 0,-3.37 2.52,-4.64 5.63,-2.85z"/>
        <path class="fil22" d="M2222.3 423.99l15.26 8.82c3.11,1.8 5.63,5.98 5.63,9.35 0,3.37 -2.52,4.64 -5.63,2.85l-15.26 -8.82c-3.11,-1.8 -5.63,-5.98 -5.63,-9.35 0,-3.37 2.52,-4.64 5.63,-2.85z"/>
       </g>
       <g>
        <path class="fil1" d="M2222.3 267.28l15.26 8.82c3.11,1.8 5.63,5.98 5.63,9.35 0,3.37 -2.52,4.64 -5.63,2.85l-15.26 -8.82c-3.11,-1.8 -5.63,-5.99 -5.63,-9.35 0,-3.37 2.52,-4.65 5.63,-2.85z"/>
        <path class="fil22" d="M2222.3 267.28l15.26 8.82c3.11,1.8 5.63,5.98 5.63,9.35 0,3.37 -2.52,4.64 -5.63,2.85l-15.26 -8.82c-3.11,-1.8 -5.63,-5.99 -5.63,-9.35 0,-3.37 2.52,-4.65 5.63,-2.85z"/>
       </g>
       <g>
        <path class="fil1" d="M2243.74 310.93l15.26 8.82c3.11,1.8 5.63,5.98 5.63,9.35 0,3.37 -2.52,4.64 -5.63,2.85l-15.26 -8.82c-3.11,-1.8 -5.63,-5.98 -5.63,-9.35 0,-3.37 2.52,-4.64 5.63,-2.85z"/>
        <path class="fil22" d="M2243.74 310.93l15.26 8.82c3.11,1.8 5.63,5.98 5.63,9.35 0,3.37 -2.52,4.64 -5.63,2.85l-15.26 -8.82c-3.11,-1.8 -5.63,-5.98 -5.63,-9.35 0,-3.37 2.52,-4.64 5.63,-2.85z"/>
       </g>
       <g>
        <path class="fil1" d="M2243.74 342.19l15.26 8.82c3.11,1.8 5.63,5.99 5.63,9.35 0,3.37 -2.52,4.64 -5.63,2.85l-15.26 -8.82c-3.11,-1.8 -5.63,-5.98 -5.63,-9.35 0,-3.37 2.52,-4.64 5.63,-2.85z"/>
        <path class="fil22" d="M2243.74 342.19l15.26 8.82c3.11,1.8 5.63,5.99 5.63,9.35 0,3.37 -2.52,4.64 -5.63,2.85l-15.26 -8.82c-3.11,-1.8 -5.63,-5.98 -5.63,-9.35 0,-3.37 2.52,-4.64 5.63,-2.85z"/>
       </g>
       <g>
        <path class="fil1" d="M2222.3 361.28l15.26 8.82c3.11,1.8 5.63,5.98 5.63,9.35 0,3.37 -2.52,4.65 -5.63,2.85l-15.26 -8.82c-3.11,-1.8 -5.63,-5.98 -5.63,-9.35 0,-3.37 2.52,-4.65 5.63,-2.85z"/>
        <path class="fil22" d="M2222.3 361.28l15.26 8.82c3.11,1.8 5.63,5.98 5.63,9.35 0,3.37 -2.52,4.65 -5.63,2.85l-15.26 -8.82c-3.11,-1.8 -5.63,-5.98 -5.63,-9.35 0,-3.37 2.52,-4.65 5.63,-2.85z"/>
       </g>
       <g>
        <path class="fil1" d="M2243.74 404.96l15.26 8.82c3.11,1.8 5.63,5.98 5.63,9.35 0,3.37 -2.52,4.64 -5.63,2.85l-15.26 -8.82c-3.11,-1.8 -5.63,-5.98 -5.63,-9.35 0,-3.37 2.52,-4.64 5.63,-2.85z"/>
        <path class="fil22" d="M2243.74 404.96l15.26 8.82c3.11,1.8 5.63,5.98 5.63,9.35 0,3.37 -2.52,4.64 -5.63,2.85l-15.26 -8.82c-3.11,-1.8 -5.63,-5.98 -5.63,-9.35 0,-3.37 2.52,-4.64 5.63,-2.85z"/>
       </g>
      </g>
      <g>
       <g>
        <path class="fil23" d="M2264.08 291.41l93.17 53.8c3.11,1.8 5.63,5.98 5.63,9.35 0,3.37 -2.52,4.64 -5.63,2.85l-93.17 -53.8c-3.11,-1.8 -5.63,-5.99 -5.63,-9.35 0,-3.37 2.52,-4.64 5.63,-2.85z"/>
        <path class="fil24" d="M2264.08 291.41l93.17 53.8c3.11,1.8 5.63,5.98 5.63,9.35 0,3.37 -2.52,4.64 -5.63,2.85l-93.17 -53.8c-3.11,-1.8 -5.63,-5.99 -5.63,-9.35 0,-3.37 2.52,-4.64 5.63,-2.85z"/>
       </g>
       <g>
        <path class="fil23" d="M2264.08 448.12l93.17 53.8c3.11,1.8 5.63,5.98 5.63,9.35 0,3.37 -2.52,4.64 -5.63,2.85l-93.17 -53.8c-3.11,-1.8 -5.63,-5.98 -5.63,-9.35 0,-3.37 2.52,-4.64 5.63,-2.85z"/>
        <path class="fil24" d="M2264.08 448.12l93.17 53.8c3.11,1.8 5.63,5.98 5.63,9.35 0,3.37 -2.52,4.64 -5.63,2.85l-93.17 -53.8c-3.11,-1.8 -5.63,-5.98 -5.63,-9.35 0,-3.37 2.52,-4.64 5.63,-2.85z"/>
       </g>
       <g>
        <path class="fil23" d="M2285.52 335.06l71.73 41.49c3.11,1.8 5.63,5.98 5.63,9.35 0,3.37 -2.52,4.64 -5.63,2.85l-71.73 -41.49c-3.11,-1.8 -5.63,-5.98 -5.64,-9.35 0,-3.37 2.52,-4.65 5.63,-2.85z"/>
        <path class="fil24" d="M2285.52 335.06l71.73 41.49c3.11,1.8 5.63,5.98 5.63,9.35 0,3.37 -2.52,4.64 -5.63,2.85l-71.73 -41.49c-3.11,-1.8 -5.63,-5.98 -5.64,-9.35 0,-3.37 2.52,-4.65 5.63,-2.85z"/>
       </g>
       <g>
        <path class="fil23" d="M2285.52 366.4l71.73 41.49c3.11,1.8 5.63,5.98 5.63,9.35 0,3.37 -2.52,4.64 -5.63,2.85l-71.73 -41.49c-3.11,-1.79 -5.63,-5.98 -5.64,-9.35 0,-3.37 2.52,-4.65 5.63,-2.85z"/>
        <path class="fil24" d="M2285.52 366.4l71.73 41.49c3.11,1.8 5.63,5.98 5.63,9.35 0,3.37 -2.52,4.64 -5.63,2.85l-71.73 -41.49c-3.11,-1.79 -5.63,-5.98 -5.64,-9.35 0,-3.37 2.52,-4.65 5.63,-2.85z"/>
       </g>
       <g>
        <path class="fil23" d="M2264.08 385.44l93.17 53.8c3.11,1.8 5.63,5.98 5.63,9.35 0,3.37 -2.52,4.65 -5.63,2.85l-93.17 -53.8c-3.11,-1.8 -5.63,-5.98 -5.63,-9.35 0,-3.37 2.52,-4.64 5.63,-2.85z"/>
        <path class="fil24" d="M2264.08 385.44l93.17 53.8c3.11,1.8 5.63,5.98 5.63,9.35 0,3.37 -2.52,4.65 -5.63,2.85l-93.17 -53.8c-3.11,-1.8 -5.63,-5.98 -5.63,-9.35 0,-3.37 2.52,-4.64 5.63,-2.85z"/>
       </g>
       <g>
        <path class="fil23" d="M2285.52 429.1l71.73 41.48c3.11,1.8 5.63,5.98 5.63,9.35 0,3.37 -2.52,4.64 -5.63,2.85l-71.73 -41.48c-3.11,-1.79 -5.63,-5.98 -5.64,-9.35 0,-3.37 2.52,-4.64 5.63,-2.85z"/>
        <path class="fil24" d="M2285.52 429.1l71.73 41.48c3.11,1.8 5.63,5.98 5.63,9.35 0,3.37 -2.52,4.64 -5.63,2.85l-71.73 -41.48c-3.11,-1.79 -5.63,-5.98 -5.64,-9.35 0,-3.37 2.52,-4.64 5.63,-2.85z"/>
       </g>
      </g>
     </g>
     <g>
      <path class="fil2" d="M2206.92 487.38l165.73 95.68c6.15,3.55 11.13,12.18 11.13,19.28l0 378.14c0,7.1 -4.98,9.98 -11.13,6.43l-165.73 -95.69c-6.15,-3.55 -11.13,-12.18 -11.13,-19.28l0 -378.14c0,-7.1 4.98,-9.98 11.13,-6.43z"/>
      <g>
       <g>
        <path class="fil0" d="M2222.3 520.36l15.26 8.82c3.11,1.8 5.63,5.98 5.63,9.35 0,3.37 -2.52,4.65 -5.63,2.85l-15.26 -8.82c-3.11,-1.8 -5.63,-5.98 -5.63,-9.35 0,-3.37 2.52,-4.64 5.63,-2.85z"/>
        <path class="fil25" d="M2222.3 520.36l15.26 8.82c3.11,1.8 5.63,5.98 5.63,9.35 0,3.37 -2.52,4.65 -5.63,2.85l-15.26 -8.82c-3.11,-1.8 -5.63,-5.98 -5.63,-9.35 0,-3.37 2.52,-4.64 5.63,-2.85z"/>
       </g>
       <g>
        <path class="fil0" d="M2243.74 564.01l15.26 8.82c3.11,1.8 5.63,5.99 5.63,9.35 0,3.37 -2.52,4.64 -5.63,2.85l-15.26 -8.82c-3.11,-1.8 -5.63,-5.98 -5.63,-9.35 0,-3.37 2.52,-4.64 5.63,-2.85z"/>
        <path class="fil25" d="M2243.74 564.01l15.26 8.82c3.11,1.8 5.63,5.99 5.63,9.35 0,3.37 -2.52,4.64 -5.63,2.85l-15.26 -8.82c-3.11,-1.8 -5.63,-5.98 -5.63,-9.35 0,-3.37 2.52,-4.64 5.63,-2.85z"/>
       </g>
       <g>
        <path class="fil0" d="M2243.74 595.27l15.26 8.82c3.11,1.8 5.63,5.98 5.63,9.35 0,3.37 -2.52,4.64 -5.63,2.85l-15.26 -8.82c-3.11,-1.8 -5.63,-5.98 -5.63,-9.35 0,-3.37 2.52,-4.64 5.63,-2.85z"/>
        <path class="fil25" d="M2243.74 595.27l15.26 8.82c3.11,1.8 5.63,5.98 5.63,9.35 0,3.37 -2.52,4.64 -5.63,2.85l-15.26 -8.82c-3.11,-1.8 -5.63,-5.98 -5.63,-9.35 0,-3.37 2.52,-4.64 5.63,-2.85z"/>
       </g>
       <g>
        <path class="fil0" d="M2222.3 614.36l15.26 8.82c3.11,1.8 5.63,5.98 5.63,9.35 0,3.37 -2.52,4.65 -5.63,2.85l-15.26 -8.82c-3.11,-1.8 -5.63,-5.99 -5.63,-9.35 0,-3.37 2.52,-4.65 5.63,-2.85z"/>
        <path class="fil25" d="M2222.3 614.36l15.26 8.82c3.11,1.8 5.63,5.98 5.63,9.35 0,3.37 -2.52,4.65 -5.63,2.85l-15.26 -8.82c-3.11,-1.8 -5.63,-5.99 -5.63,-9.35 0,-3.37 2.52,-4.65 5.63,-2.85z"/>
       </g>
      </g>
      <g>
       <g>
        <path class="fil0" d="M2264.08 544.49l93.17 53.8c3.11,1.8 5.63,5.98 5.63,9.35 0,3.37 -2.52,4.64 -5.63,2.85l-93.17 -53.8c-3.11,-1.8 -5.63,-5.98 -5.63,-9.35 0,-3.37 2.52,-4.64 5.63,-2.85z"/>
        <path class="fil26" d="M2264.08 544.49l93.17 53.8c3.11,1.8 5.63,5.98 5.63,9.35 0,3.37 -2.52,4.64 -5.63,2.85l-93.17 -53.8c-3.11,-1.8 -5.63,-5.98 -5.63,-9.35 0,-3.37 2.52,-4.64 5.63,-2.85z"/>
       </g>
       <g>
        <path class="fil0" d="M2285.52 588.14l71.73 41.49c3.11,1.8 5.63,5.99 5.63,9.35 0,3.37 -2.52,4.64 -5.63,2.85l-71.73 -41.49c-3.11,-1.79 -5.63,-5.98 -5.64,-9.35 0,-3.37 2.52,-4.65 5.63,-2.85z"/>
        <path class="fil26" d="M2285.52 588.14l71.73 41.49c3.11,1.8 5.63,5.99 5.63,9.35 0,3.37 -2.52,4.64 -5.63,2.85l-71.73 -41.49c-3.11,-1.79 -5.63,-5.98 -5.64,-9.35 0,-3.37 2.52,-4.65 5.63,-2.85z"/>
       </g>
       <g>
        <path class="fil0" d="M2285.52 619.48l71.73 41.5c3.11,1.8 5.63,5.98 5.63,9.35 0,3.37 -2.52,4.65 -5.63,2.85l-71.73 -41.49c-3.11,-1.79 -5.63,-5.98 -5.64,-9.35 0,-3.37 2.52,-4.64 5.63,-2.85z"/>
        <path class="fil26" d="M2285.52 619.48l71.73 41.5c3.11,1.8 5.63,5.98 5.63,9.35 0,3.37 -2.52,4.65 -5.63,2.85l-71.73 -41.49c-3.11,-1.79 -5.63,-5.98 -5.64,-9.35 0,-3.37 2.52,-4.64 5.63,-2.85z"/>
       </g>
       <g>
        <path class="fil0" d="M2264.08 638.52l93.17 53.8c3.11,1.8 5.63,5.98 5.63,9.35 0,3.37 -2.52,4.65 -5.63,2.85l-93.17 -53.8c-3.11,-1.79 -5.63,-5.98 -5.63,-9.35 0,-3.37 2.52,-4.64 5.63,-2.85z"/>
        <path class="fil26" d="M2264.08 638.52l93.17 53.8c3.11,1.8 5.63,5.98 5.63,9.35 0,3.37 -2.52,4.65 -5.63,2.85l-93.17 -53.8c-3.11,-1.79 -5.63,-5.98 -5.63,-9.35 0,-3.37 2.52,-4.64 5.63,-2.85z"/>
       </g>
       <g>
        <path class="fil0" d="M2243.74 658.22l15.26 8.82c3.11,1.8 5.63,5.98 5.63,9.35 0,3.37 -2.52,4.64 -5.63,2.85l-15.26 -8.82c-3.11,-1.79 -5.63,-5.98 -5.63,-9.35 0,-3.37 2.52,-4.64 5.63,-2.85z"/>
        <path class="fil25" d="M2243.74 658.22l15.26 8.82c3.11,1.8 5.63,5.98 5.63,9.35 0,3.37 -2.52,4.64 -5.63,2.85l-15.26 -8.82c-3.11,-1.79 -5.63,-5.98 -5.63,-9.35 0,-3.37 2.52,-4.64 5.63,-2.85z"/>
       </g>
       <g>
        <path class="fil0" d="M2243.74 689.49l15.26 8.82c3.11,1.8 5.63,5.98 5.63,9.35 0,3.37 -2.52,4.64 -5.63,2.85l-15.26 -8.82c-3.11,-1.8 -5.63,-5.98 -5.63,-9.35 0,-3.37 2.52,-4.65 5.63,-2.85z"/>
        <path class="fil25" d="M2243.74 689.49l15.26 8.82c3.11,1.8 5.63,5.98 5.63,9.35 0,3.37 -2.52,4.64 -5.63,2.85l-15.26 -8.82c-3.11,-1.8 -5.63,-5.98 -5.63,-9.35 0,-3.37 2.52,-4.65 5.63,-2.85z"/>
       </g>
       <g>
        <path class="fil0" d="M2285.52 682.35l71.73 41.49c3.11,1.8 5.63,5.98 5.63,9.35 0,3.37 -2.52,4.64 -5.63,2.85l-71.73 -41.49c-3.11,-1.8 -5.63,-5.98 -5.64,-9.35 0,-3.37 2.52,-4.64 5.63,-2.85z"/>
        <path class="fil26" d="M2285.52 682.35l71.73 41.49c3.11,1.8 5.63,5.98 5.63,9.35 0,3.37 -2.52,4.64 -5.63,2.85l-71.73 -41.49c-3.11,-1.8 -5.63,-5.98 -5.64,-9.35 0,-3.37 2.52,-4.64 5.63,-2.85z"/>
       </g>
       <g>
        <path class="fil0" d="M2285.52 713.69l71.73 41.49c3.11,1.8 5.63,5.98 5.63,9.35 0,3.37 -2.52,4.64 -5.63,2.85l-71.73 -41.49c-3.11,-1.8 -5.63,-5.98 -5.64,-9.35 0,-3.37 2.52,-4.65 5.63,-2.85z"/>
        <path class="fil26" d="M2285.52 713.69l71.73 41.49c3.11,1.8 5.63,5.98 5.63,9.35 0,3.37 -2.52,4.64 -5.63,2.85l-71.73 -41.49c-3.11,-1.8 -5.63,-5.98 -5.64,-9.35 0,-3.37 2.52,-4.65 5.63,-2.85z"/>
       </g>
       <g>
        <path class="fil0" d="M2222.3 771.45l15.26 8.82c3.11,1.8 5.63,5.98 5.63,9.35 0,3.37 -2.52,4.65 -5.63,2.85l-15.26 -8.82c-3.11,-1.79 -5.63,-5.98 -5.63,-9.35 0,-3.37 2.52,-4.65 5.63,-2.85z"/>
        <path class="fil25" d="M2222.3 771.45l15.26 8.82c3.11,1.8 5.63,5.98 5.63,9.35 0,3.37 -2.52,4.65 -5.63,2.85l-15.26 -8.82c-3.11,-1.79 -5.63,-5.98 -5.63,-9.35 0,-3.37 2.52,-4.65 5.63,-2.85z"/>
       </g>
       <g>
        <path class="fil0" d="M2264.08 795.61l93.17 53.8c3.11,1.79 5.63,5.98 5.63,9.35 0,3.37 -2.52,4.65 -5.63,2.85l-93.17 -53.8c-3.11,-1.8 -5.63,-5.98 -5.63,-9.35 0,-3.37 2.52,-4.64 5.63,-2.85z"/>
        <path class="fil26" d="M2264.08 795.61l93.17 53.8c3.11,1.79 5.63,5.98 5.63,9.35 0,3.37 -2.52,4.65 -5.63,2.85l-93.17 -53.8c-3.11,-1.8 -5.63,-5.98 -5.63,-9.35 0,-3.37 2.52,-4.64 5.63,-2.85z"/>
       </g>
       <g>
        <path class="fil0" d="M2243.74 815.31l15.26 8.82c3.11,1.8 5.63,5.98 5.63,9.35 0,3.37 -2.52,4.64 -5.63,2.85l-15.26 -8.82c-3.11,-1.8 -5.63,-5.98 -5.63,-9.35 0,-3.37 2.52,-4.64 5.63,-2.85z"/>
        <path class="fil25" d="M2243.74 815.31l15.26 8.82c3.11,1.8 5.63,5.98 5.63,9.35 0,3.37 -2.52,4.64 -5.63,2.85l-15.26 -8.82c-3.11,-1.8 -5.63,-5.98 -5.63,-9.35 0,-3.37 2.52,-4.64 5.63,-2.85z"/>
       </g>
       <g>
        <path class="fil0" d="M2243.74 846.58l15.26 8.82c3.11,1.8 5.63,5.98 5.63,9.35 0,3.37 -2.52,4.64 -5.63,2.85l-15.26 -8.82c-3.11,-1.79 -5.63,-5.98 -5.63,-9.35 0,-3.37 2.52,-4.64 5.63,-2.85z"/>
        <path class="fil25" d="M2243.74 846.58l15.26 8.82c3.11,1.8 5.63,5.98 5.63,9.35 0,3.37 -2.52,4.64 -5.63,2.85l-15.26 -8.82c-3.11,-1.79 -5.63,-5.98 -5.63,-9.35 0,-3.37 2.52,-4.64 5.63,-2.85z"/>
       </g>
       <g>
        <path class="fil0" d="M2285.52 839.44l71.73 41.49c3.11,1.8 5.63,5.98 5.63,9.36 0,3.37 -2.52,4.64 -5.63,2.85l-71.73 -41.49c-3.11,-1.79 -5.63,-5.98 -5.64,-9.35 0,-3.37 2.52,-4.65 5.63,-2.85z"/>
        <path class="fil26" d="M2285.52 839.44l71.73 41.49c3.11,1.8 5.63,5.98 5.63,9.36 0,3.37 -2.52,4.64 -5.63,2.85l-71.73 -41.49c-3.11,-1.79 -5.63,-5.98 -5.64,-9.35 0,-3.37 2.52,-4.65 5.63,-2.85z"/>
       </g>
       <g>
        <path class="fil0" d="M2285.52 870.78l71.73 41.49c3.11,1.8 5.63,5.98 5.63,9.35 0,3.37 -2.52,4.64 -5.63,2.85l-71.73 -41.49c-3.11,-1.79 -5.63,-5.98 -5.64,-9.35 0,-3.37 2.52,-4.64 5.63,-2.85z"/>
        <path class="fil26" d="M2285.52 870.78l71.73 41.49c3.11,1.8 5.63,5.98 5.63,9.35 0,3.37 -2.52,4.64 -5.63,2.85l-71.73 -41.49c-3.11,-1.79 -5.63,-5.98 -5.64,-9.35 0,-3.37 2.52,-4.64 5.63,-2.85z"/>
       </g>
       <g>
        <path class="fil0" d="M2243.74 720.58l15.26 8.82c3.11,1.8 5.63,5.98 5.63,9.35 0,3.37 -2.52,4.64 -5.63,2.85l-15.26 -8.82c-3.11,-1.8 -5.63,-5.98 -5.63,-9.36 0,-3.37 2.52,-4.64 5.63,-2.85z"/>
        <path class="fil25" d="M2243.74 720.58l15.26 8.82c3.11,1.8 5.63,5.98 5.63,9.35 0,3.37 -2.52,4.64 -5.63,2.85l-15.26 -8.82c-3.11,-1.8 -5.63,-5.98 -5.63,-9.36 0,-3.37 2.52,-4.64 5.63,-2.85z"/>
       </g>
       <g>
        <path class="fil0" d="M2222.3 739.67l15.26 8.82c3.11,1.8 5.63,5.98 5.63,9.35 0,3.37 -2.52,4.64 -5.63,2.85l-15.26 -8.82c-3.11,-1.8 -5.63,-5.98 -5.63,-9.35 0,-3.37 2.52,-4.64 5.63,-2.85z"/>
        <path class="fil25" d="M2222.3 739.67l15.26 8.82c3.11,1.8 5.63,5.98 5.63,9.35 0,3.37 -2.52,4.64 -5.63,2.85l-15.26 -8.82c-3.11,-1.8 -5.63,-5.98 -5.63,-9.35 0,-3.37 2.52,-4.64 5.63,-2.85z"/>
       </g>
       <g>
        <path class="fil0" d="M2285.52 744.79l71.73 41.49c3.11,1.8 5.63,5.98 5.63,9.35 0,3.37 -2.52,4.64 -5.63,2.85l-71.73 -41.5c-3.11,-1.79 -5.63,-5.98 -5.64,-9.35 0,-3.37 2.52,-4.65 5.63,-2.85z"/>
        <path class="fil26" d="M2285.52 744.79l71.73 41.49c3.11,1.8 5.63,5.98 5.63,9.35 0,3.37 -2.52,4.64 -5.63,2.85l-71.73 -41.5c-3.11,-1.79 -5.63,-5.98 -5.64,-9.35 0,-3.37 2.52,-4.65 5.63,-2.85z"/>
       </g>
       <g>
        <path class="fil0" d="M2264.08 763.83l93.17 53.8c3.11,1.8 5.63,5.98 5.63,9.35 0,3.37 -2.52,4.65 -5.63,2.85l-93.17 -53.8c-3.11,-1.8 -5.63,-5.98 -5.63,-9.35 0,-3.37 2.52,-4.64 5.63,-2.85z"/>
        <path class="fil26" d="M2264.08 763.83l93.17 53.8c3.11,1.8 5.63,5.98 5.63,9.35 0,3.37 -2.52,4.65 -5.63,2.85l-93.17 -53.8c-3.11,-1.8 -5.63,-5.98 -5.63,-9.35 0,-3.37 2.52,-4.64 5.63,-2.85z"/>
       </g>
       <g>
        <path class="fil0" d="M2222.3 866.1l15.26 8.82c3.11,1.8 5.63,5.98 5.63,9.35 0,3.37 -2.52,4.65 -5.63,2.85l-15.26 -8.82c-3.11,-1.8 -5.63,-5.99 -5.63,-9.35 0,-3.37 2.52,-4.65 5.63,-2.85z"/>
        <path class="fil25" d="M2222.3 866.1l15.26 8.82c3.11,1.8 5.63,5.98 5.63,9.35 0,3.37 -2.52,4.65 -5.63,2.85l-15.26 -8.82c-3.11,-1.8 -5.63,-5.99 -5.63,-9.35 0,-3.37 2.52,-4.65 5.63,-2.85z"/>
       </g>
       <g>
        <path class="fil0" d="M2264.08 890.26l93.17 53.8c3.11,1.8 5.63,5.98 5.63,9.35 0,3.37 -2.52,4.65 -5.63,2.85l-93.17 -53.8c-3.11,-1.8 -5.63,-5.98 -5.63,-9.35 0,-3.37 2.52,-4.64 5.63,-2.85z"/>
        <path class="fil26" d="M2264.08 890.26l93.17 53.8c3.11,1.8 5.63,5.98 5.63,9.35 0,3.37 -2.52,4.65 -5.63,2.85l-93.17 -53.8c-3.11,-1.8 -5.63,-5.98 -5.63,-9.35 0,-3.37 2.52,-4.64 5.63,-2.85z"/>
       </g>
      </g>
     </g>
    </g>
   </g>
   <g>
    <g>
     <g>
      <path class="fil27" d="M3129.05 1018.93l0 620.51c0,8.25 5.8,18.23 12.9,22.33l356.48 205.68c1.48,0.85 2.96,1.27 4.27,1.23 0.55,0 1.1,-0.09 1.65,-0.21 0.38,-0.08 0.76,-0.21 1.1,-0.38 0.25,-0.13 0.47,-0.26 0.67,-0.38 0.25,-0.17 0.51,-0.34 0.76,-0.51 0.25,-0.21 0.51,-0.38 0.72,-0.64 1.02,-0.93 1.78,-2.07 2.37,-3.38 0.85,-1.9 1.35,-4.14 1.35,-6.51l0 -617.38c0,-8.21 -5.79,-18.23 -12.9,-22.33l-356.48 -205.47c-3.34,-1.9 -6.35,-2.2 -8.67,-1.1 -0.38,0.17 -0.76,0.38 -1.1,0.63 -0.04,0.04 -0.09,0.08 -0.09,0.08 -0.34,0.25 -0.59,0.51 -0.84,0.85 -0.17,0.13 -0.26,0.3 -0.38,0.47 -0.17,0.21 -0.34,0.42 -0.42,0.68 -0.34,0.51 -0.59,1.06 -0.76,1.65 -0.13,0.34 -0.25,0.72 -0.3,1.14 -0.04,0.08 -0.08,0.17 -0.04,0.26 -0.13,0.38 -0.17,0.76 -0.21,1.18 -0.04,0.51 -0.08,1.06 -0.08,1.61z"/>
     </g>
     <g>
      <g>
       <path class="fil28" d="M3133.28 1010.39c2.33,-1.1 5.33,-0.8 8.67,1.1l356.48 205.47c7.1,4.1 12.9,14.13 12.9,22.33l0 42.12 20.54 -11.87 0 -41.83c0,-8.21 -5.75,-18.19 -12.86,-22.29l-356.52 -205.47c-3.68,-2.16 -6.98,-2.2 -9.34,-0.76 -2.33,1.4 -17.12,9.76 -19.87,11.2z"/>
      </g>
      <path class="fil16" d="M3129.08 1018.85c0.05,-8.14 5.79,-11.43 12.88,-7.34l356.48 205.46c7.12,4.11 12.89,14.1 12.89,22.32l-0.01 42.15 -382.23 -220.29 0 -42.29z"/>
      <g>
       <path class="fil17" d="M3141.96 1011.5l356.46 205.47c3.52,2.07 6.77,5.55 9.08,9.56l20.46 -11.71c-2.31,-3.97 -5.48,-7.42 -8.96,-9.41l-356.49 -205.46c-3.69,-2.15 -6.97,-2.18 -9.36,-0.76 -2.31,1.42 -17.1,9.73 -19.81,11.19 2.27,-1.09 5.31,-0.77 8.63,1.13z"/>
      </g>
      <path class="fil9" d="M3531.89 1269.59l-0.01 -41.89c0,-4.17 -1.53,-8.79 -3.92,-12.89l-20.5 11.67c2.39,4.05 3.85,8.63 3.85,12.8l0 42.14 20.58 -11.84z"/>
     </g>
     <g>
      <path class="fil3" d="M3492.58 1234.3c4.02,2.32 7.28,9.22 7.28,15.41 0,6.19 -3.26,9.33 -7.28,7.01 -4.02,-2.32 -7.28,-9.22 -7.28,-15.41 0,-6.19 3.26,-9.33 7.28,-7.01z"/>
      <path class="fil3" d="M3466.37 1219.14c4.02,2.32 7.28,9.22 7.28,15.41 0,6.19 -3.26,9.33 -7.28,7.01 -4.02,-2.32 -7.28,-9.22 -7.28,-15.41 0,-6.19 3.26,-9.33 7.28,-7.01z"/>
      <path class="fil3" d="M3440.16 1203.98c4.02,2.32 7.28,9.22 7.28,15.41 0,6.19 -3.26,9.33 -7.28,7 -4.02,-2.32 -7.28,-9.22 -7.28,-15.41 0,-6.19 3.26,-9.33 7.28,-7.01z"/>
     </g>
     <g>
      <path class="fil29" d="M3506.59 1867.5c0.47,-0.3 1.02,-0.59 1.61,-0.93 1.19,-0.72 2.54,-1.48 3.98,-2.24l0.04 -0.04c0.72,-0.42 1.44,-0.85 2.16,-1.23 0.04,-0.04 0.13,-0.09 0.17,-0.09 1.19,-0.67 2.33,-1.35 3.39,-1.94 1.1,-0.64 6.16,-3.42 6.92,-3.84 0.76,-0.47 1.35,-0.76 1.61,-0.89 0.8,-0.42 1.57,-1.01 2.2,-1.78 0.68,-0.72 1.27,-1.61 1.73,-2.62 0.93,-1.94 1.48,-4.31 1.48,-6.81l0 -575.55 -20.54 11.87 0 575.26c-0.13,2.54 -0.59,4.7 -1.35,6.51 -0.59,1.31 -1.35,2.45 -2.37,3.38 -0.17,0.26 -0.42,0.47 -0.72,0.64 -0.09,0.13 -0.17,0.21 -0.3,0.3z"/>
     </g>
    </g>
    <g>
     <g>
      <path class="fil30" d="M3158.68 1132.33c0,-0.77 0.22,-1.32 0.66,-1.65l9.26 -8.47c0.15,-0.1 0.29,-0.13 0.42,-0.08 0.12,0.05 0.2,0.08 0.24,0.1 0.28,0.16 0.52,0.46 0.73,0.89 0.2,0.43 0.31,0.86 0.31,1.29l0 6.44c0,0.82 -0.06,1.41 -0.19,1.77 -0.12,0.36 -0.34,0.69 -0.66,1l-4.89 4.49 4.89 10.13c0.31,0.66 0.53,1.25 0.66,1.75 0.13,0.51 0.19,1.17 0.19,1.99l0 6.44c0,0.44 -0.1,0.75 -0.31,0.95 -0.2,0.19 -0.45,0.21 -0.73,0.05 -0.03,-0.02 -0.11,-0.08 -0.24,-0.17 -0.13,-0.1 -0.27,-0.29 -0.42,-0.57l-9.26 -19.18c-0.44,-0.83 -0.66,-1.63 -0.66,-2.4l0 -4.77z"/>
      <path class="fil30" d="M3192.56 1123.38c0.16,-0.44 0.39,-0.8 0.7,-1.08 0.32,-0.27 0.77,-0.24 1.36,0.1l3.48 2.01c0.28,0.16 0.52,0.46 0.73,0.89 0.2,0.43 0.3,0.86 0.3,1.29 0,0.19 -0.03,0.4 -0.09,0.6l-15.88 49.37c-0.12,0.41 -0.35,0.77 -0.66,1.07 -0.31,0.3 -0.78,0.27 -1.41,-0.09l-3.34 -1.93c-0.28,-0.16 -0.52,-0.46 -0.73,-0.89 -0.21,-0.44 -0.31,-0.87 -0.31,-1.3 0,-0.19 0.03,-0.39 0.09,-0.6l15.75 -49.45z"/>
      <path class="fil30" d="M3217.14 1170.86c0,0.77 -0.22,1.32 -0.66,1.64l-9.26 8.48c-0.16,0.1 -0.3,0.13 -0.42,0.08 -0.12,-0.05 -0.2,-0.08 -0.23,-0.1 -0.28,-0.16 -0.53,-0.46 -0.73,-0.89 -0.2,-0.43 -0.3,-0.86 -0.3,-1.3l0 -6.44c0,-0.82 0.06,-1.41 0.18,-1.78 0.12,-0.36 0.35,-0.69 0.66,-1l4.89 -4.48 -4.89 -10.14c-0.31,-0.66 -0.53,-1.25 -0.66,-1.75 -0.12,-0.5 -0.18,-1.17 -0.18,-1.99l0 -6.44c0,-0.44 0.1,-0.75 0.3,-0.95 0.21,-0.19 0.45,-0.21 0.73,-0.05 0.03,0.02 0.11,0.07 0.23,0.17 0.13,0.1 0.27,0.29 0.42,0.57l9.26 19.17c0.44,0.83 0.66,1.64 0.66,2.41l0 4.78z"/>
      <path class="fil30" d="M3242.9 1196.15c0.34,0.2 0.64,0.56 0.9,1.1 0.25,0.53 0.38,1.06 0.38,1.59l0 7.09c0,0.53 -0.13,0.91 -0.38,1.16 -0.26,0.24 -0.55,0.26 -0.9,0.06l-4.37 -2.52c-0.35,-0.2 -0.65,-0.57 -0.89,-1.09 -0.25,-0.54 -0.37,-1.06 -0.37,-1.59l0 -7.09c0,-0.53 0.12,-0.92 0.37,-1.16 0.25,-0.24 0.55,-0.27 0.89,-0.07l4.37 2.52z"/>
      <path class="fil30" d="M3257.52 1204.59c0.34,0.2 0.64,0.56 0.89,1.09 0.25,0.53 0.37,1.06 0.37,1.59l0 7.09c0,0.53 -0.12,0.92 -0.37,1.16 -0.25,0.24 -0.55,0.26 -0.89,0.06l-4.37 -2.53c-0.35,-0.2 -0.64,-0.56 -0.89,-1.09 -0.25,-0.54 -0.37,-1.06 -0.37,-1.59l0 -7.09c0,-0.53 0.12,-0.92 0.37,-1.16 0.25,-0.24 0.55,-0.26 0.89,-0.07l4.37 2.53z"/>
      <path class="fil30" d="M3272.14 1213.03c0.34,0.2 0.64,0.56 0.9,1.1 0.25,0.53 0.38,1.06 0.38,1.59l0 7.09c0,0.53 -0.13,0.91 -0.38,1.16 -0.26,0.24 -0.55,0.26 -0.9,0.06l-4.37 -2.52c-0.35,-0.2 -0.65,-0.57 -0.89,-1.09 -0.25,-0.54 -0.37,-1.06 -0.37,-1.59l0 -7.09c0,-0.53 0.12,-0.92 0.37,-1.16 0.25,-0.24 0.55,-0.27 0.89,-0.06l4.37 2.52z"/>
     </g>
     <path class="fil30" d="M3162.57 1188.54l214.19 123.66c2.53,1.46 4.58,4.86 4.58,7.6 0,2.74 -2.05,3.78 -4.58,2.32l-214.19 -123.66c-2.53,-1.46 -4.58,-4.86 -4.58,-7.6 0,-2.74 2.05,-3.78 4.58,-2.32z"/>
     <path class="fil30" d="M3231.3 1347.25l214.19 123.66c2.53,1.46 4.58,4.86 4.58,7.6 0,2.74 -2.05,3.78 -4.58,2.32l-214.19 -123.66c-2.53,-1.46 -4.58,-4.86 -4.58,-7.6 0,-2.74 2.05,-3.78 4.58,-2.32z"/>
     <path class="fil30" d="M3231.3 1426.6l102.51 59.23c2.53,1.46 4.58,4.86 4.58,7.6 0,2.74 -2.05,3.78 -4.58,2.32l-102.51 -59.23c-2.53,-1.46 -4.58,-4.86 -4.58,-7.6 0,-2.74 2.05,-3.78 4.58,-2.32z"/>
     <path class="fil30" d="M3394.51 1322.45l85.33 49.08c2.53,1.46 4.58,4.86 4.58,7.6 0,2.74 -2.05,3.78 -4.58,2.31l-85.33 -49.08c-2.53,-1.46 -4.58,-4.86 -4.58,-7.6 0,-2.74 2.05,-3.78 4.58,-2.31z"/>
     <path class="fil30" d="M3162.57 1624.94l214.19 123.66c2.53,1.46 4.58,4.86 4.58,7.6 0,2.74 -2.05,3.78 -4.58,2.32l-214.19 -123.66c-2.53,-1.46 -4.58,-4.86 -4.58,-7.6 0,-2.74 2.05,-3.78 4.58,-2.32z"/>
     <path class="fil30" d="M3394.51 1758.85l85.33 49.08c2.53,1.46 4.58,4.87 4.58,7.6 0,2.74 -2.05,3.77 -4.58,2.32l-85.33 -49.09c-2.53,-1.46 -4.58,-4.86 -4.58,-7.6 0,-2.74 2.05,-3.77 4.58,-2.31z"/>
     <path class="fil30" d="M3394.51 1640.03l85.33 49.09c2.53,1.46 4.58,4.86 4.58,7.6 0,2.74 -2.05,3.78 -4.58,2.32l-85.33 -49.08c-2.53,-1.46 -4.58,-4.86 -4.58,-7.6 0,-2.74 2.05,-3.78 4.58,-2.32z"/>
     <path class="fil30" d="M3394.51 1679.7l85.33 49.09c2.53,1.46 4.58,4.86 4.58,7.6 0,2.74 -2.05,3.78 -4.58,2.32l-85.33 -49.09c-2.53,-1.46 -4.58,-4.86 -4.58,-7.6 0,-2.74 2.05,-3.77 4.58,-2.31z"/>
     <path class="fil1" d="M3321.75 1597.9l47.95 27.68c2.53,1.46 4.58,4.86 4.58,7.6 0,2.74 -2.05,3.78 -4.58,2.32l-47.95 -27.68c-2.53,-1.46 -4.58,-4.86 -4.58,-7.6 0,-2.74 2.05,-3.78 4.58,-2.32z"/>
     <g>
      <path class="fil30" d="M3162.57 1228.31l124.93 72.08c2.53,1.46 4.58,4.86 4.58,7.6 0,2.74 -2.05,3.78 -4.58,2.32l-124.93 -72.08c-2.53,-1.46 -4.58,-4.86 -4.58,-7.6 0,-2.74 2.05,-3.78 4.58,-2.32z"/>
      <path class="fil31" d="M3162.57 1228.31l124.93 72.08c2.53,1.46 4.58,4.86 4.58,7.6 0,2.74 -2.05,3.78 -4.58,2.32l-124.93 -72.08c-2.53,-1.46 -4.58,-4.86 -4.58,-7.6 0,-2.74 2.05,-3.78 4.58,-2.32z"/>
     </g>
     <g>
      <path class="fil30" d="M3162.57 1267.91l42.38 24.44c2.53,1.46 4.58,4.86 4.58,7.6 0,2.74 -2.05,3.78 -4.58,2.31l-42.38 -24.44c-2.53,-1.46 -4.58,-4.86 -4.58,-7.6 0,-2.74 2.05,-3.78 4.58,-2.32z"/>
      <path class="fil31" d="M3162.57 1267.91l42.38 24.44c2.53,1.46 4.58,4.86 4.58,7.6 0,2.74 -2.05,3.78 -4.58,2.31l-42.38 -24.44c-2.53,-1.46 -4.58,-4.86 -4.58,-7.6 0,-2.74 2.05,-3.78 4.58,-2.32z"/>
     </g>
     <g>
      <path class="fil30" d="M3162.57 1307.58l42.38 24.44c2.53,1.46 4.58,4.86 4.58,7.6 0,2.74 -2.05,3.78 -4.58,2.32l-42.38 -24.44c-2.53,-1.46 -4.58,-4.86 -4.58,-7.6 0,-2.74 2.05,-3.78 4.58,-2.32z"/>
      <path class="fil31" d="M3162.57 1307.58l42.38 24.44c2.53,1.46 4.58,4.86 4.58,7.6 0,2.74 -2.05,3.78 -4.58,2.32l-42.38 -24.44c-2.53,-1.46 -4.58,-4.86 -4.58,-7.6 0,-2.74 2.05,-3.78 4.58,-2.32z"/>
     </g>
     <g>
      <path class="fil30" d="M3162.57 1347.26l42.38 24.44c2.53,1.46 4.58,4.86 4.58,7.6 0,2.74 -2.05,3.78 -4.58,2.32l-42.38 -24.44c-2.53,-1.46 -4.58,-4.86 -4.58,-7.6 0,-2.74 2.05,-3.78 4.58,-2.32z"/>
     </g>
     <path class="fil31" d="M3162.57 1347.25l42.38 24.44c2.53,1.46 4.58,4.86 4.58,7.6 0,2.74 -2.05,3.78 -4.58,2.32l-42.38 -24.44c-2.53,-1.46 -4.58,-4.87 -4.58,-7.6 0,-2.74 2.05,-3.78 4.58,-2.32z"/>
     <path class="fil31" d="M3231.29 1386.92l124.93 72.08c2.53,1.46 4.58,4.87 4.58,7.6 0,2.74 -2.05,3.77 -4.58,2.32l-124.93 -72.08c-2.53,-1.46 -4.58,-4.86 -4.58,-7.6 0,-2.74 2.05,-3.78 4.58,-2.32z"/>
     <path class="fil31" d="M3373.97 1469.24l54.33 31.47c2.53,1.46 4.58,4.86 4.58,7.6 0,2.74 -2.05,3.77 -4.58,2.32l-54.33 -31.47c-2.53,-1.46 -4.58,-4.86 -4.58,-7.6 0,-2.74 2.05,-3.78 4.58,-2.32z"/>
     <path class="fil31" d="M3231.29 1386.92l124.93 72.08c2.53,1.46 4.58,4.87 4.58,7.6 0,2.74 -2.05,3.77 -4.58,2.32l-124.93 -72.08c-2.53,-1.46 -4.58,-4.86 -4.58,-7.6 0,-2.74 2.05,-3.78 4.58,-2.32z"/>
     <path class="fil31" d="M3373.97 1469.24l54.33 31.47c2.53,1.46 4.58,4.86 4.58,7.6 0,2.74 -2.05,3.77 -4.58,2.32l-54.33 -31.47c-2.53,-1.46 -4.58,-4.86 -4.58,-7.6 0,-2.74 2.05,-3.78 4.58,-2.32z"/>
     <g>
      <path class="fil30" d="M3162.57 1386.93l42.38 24.44c2.53,1.46 4.58,4.86 4.58,7.6 0,2.74 -2.05,3.78 -4.58,2.31l-42.38 -24.44c-2.53,-1.46 -4.58,-4.86 -4.58,-7.6 0,-2.74 2.05,-3.78 4.58,-2.32z"/>
      <path class="fil31" d="M3162.57 1386.93l42.38 24.44c2.53,1.46 4.58,4.86 4.58,7.6 0,2.74 -2.05,3.78 -4.58,2.31l-42.38 -24.44c-2.53,-1.46 -4.58,-4.86 -4.58,-7.6 0,-2.74 2.05,-3.78 4.58,-2.32z"/>
     </g>
     <g>
      <path class="fil30" d="M3305.25 1310.63l54.33 31.47c2.53,1.46 4.58,4.86 4.58,7.6 0,2.74 -2.05,3.78 -4.58,2.32l-54.33 -31.46c-2.53,-1.46 -4.58,-4.87 -4.58,-7.6 0,-2.74 2.05,-3.78 4.58,-2.32z"/>
      <path class="fil31" d="M3305.25 1310.63l54.33 31.47c2.53,1.46 4.58,4.86 4.58,7.6 0,2.74 -2.05,3.78 -4.58,2.32l-54.33 -31.46c-2.53,-1.46 -4.58,-4.87 -4.58,-7.6 0,-2.74 2.05,-3.78 4.58,-2.32z"/>
     </g>
     <g>
      <path class="fil30" d="M3282.84 1495.98l124.93 72.08c2.53,1.46 4.58,4.86 4.58,7.6 0,2.74 -2.05,3.78 -4.58,2.32l-124.93 -72.08c-2.53,-1.46 -4.58,-4.86 -4.58,-7.6 0,-2.74 2.05,-3.78 4.58,-2.32z"/>
     </g>
     <g>
      <path class="fil30" d="M3354.91 1577.42l124.93 72.08c2.53,1.46 4.58,4.86 4.58,7.6 0,2.74 -2.05,3.78 -4.58,2.32l-124.93 -72.08c-2.53,-1.46 -4.58,-4.86 -4.58,-7.6 0,-2.74 2.05,-3.78 4.58,-2.32z"/>
     </g>
     <g>
      <path class="fil30" d="M3425.52 1578.29l54.33 31.47c2.53,1.46 4.58,4.86 4.58,7.6 0,2.74 -2.05,3.78 -4.58,2.32l-54.33 -31.47c-2.53,-1.46 -4.58,-4.86 -4.58,-7.6 -0,-2.74 2.05,-3.78 4.58,-2.32z"/>
     </g>
     <g>
      <path class="fil30" d="M3425.52 1735.44l54.33 31.47c2.53,1.46 4.58,4.86 4.58,7.6 0,2.74 -2.05,3.78 -4.58,2.32l-54.33 -31.47c-2.53,-1.46 -4.58,-4.86 -4.58,-7.6 -0,-2.74 2.05,-3.78 4.58,-2.32z"/>
     </g>
     <g>
      <path class="fil30" d="M3231.29 1307.59l124.93 72.07c2.53,1.46 4.58,4.87 4.58,7.6 0,2.74 -2.05,3.77 -4.58,2.31l-124.93 -72.07c-2.53,-1.46 -4.58,-4.86 -4.58,-7.6 0,-2.74 2.05,-3.78 4.58,-2.31z"/>
      <path class="fil31" d="M3231.29 1307.59l124.93 72.07c2.53,1.46 4.58,4.87 4.58,7.6 0,2.74 -2.05,3.77 -4.58,2.31l-124.93 -72.07c-2.53,-1.46 -4.58,-4.86 -4.58,-7.6 0,-2.74 2.05,-3.78 4.58,-2.31z"/>
     </g>
     <g>
      <path class="fil30" d="M3373.97 1389.91l54.33 31.47c2.53,1.46 4.58,4.86 4.58,7.6 0,2.74 -2.05,3.78 -4.58,2.31l-54.33 -31.46c-2.53,-1.46 -4.58,-4.86 -4.58,-7.6 0,-2.74 2.05,-3.78 4.58,-2.32z"/>
      <path class="fil31" d="M3373.97 1389.91l54.33 31.47c2.53,1.46 4.58,4.86 4.58,7.6 0,2.74 -2.05,3.78 -4.58,2.31l-54.33 -31.46c-2.53,-1.46 -4.58,-4.86 -4.58,-7.6 0,-2.74 2.05,-3.78 4.58,-2.32z"/>
     </g>
    </g>
   </g>
   <g>
    <path class="fil9" d="M2522.42 1844.44l76.57 44.21c24.13,13.93 61.96,11.94 84.49,-4.46l126.29 -92.22c22.53,-16.39 21.25,-41.01 -2.86,-54.98l-38.4 -22.25c-24.11,-13.97 -63.85,-15.17 -88.76,-2.69l-155.93 84.54c-24.91,12.49 -25.54,33.91 -1.41,47.84z"/>
    <path class="fil2" d="M2811.88 1751.9l-87.39 68.32 -64.48 50.45c-6.26,2.93 -13.42,4.54 -20.59,4.94 -10.9,0.6 -22,-1.51 -30.58,-6.46l-68.52 -39.55c0,0 -0.1,0 -0.1,-0.1 -0.13,-0.08 -0.26,-0.15 -0.39,-0.23 -24.04,-13.99 -29.71,-46.48 -13.84,-69.33 0.66,-0.95 1.33,-1.88 2.02,-2.8 13.02,-17.56 32.39,-30.27 55.1,-34.92l34.71 -6.96c56.21,-11.4 102.32,-16.95 107.67,-13.32l85.88 49.75c0.2,0 0.4,0.1 0.51,0.2z"/>
    <path class="fil32" d="M2763.03 1790.12l4.91 -3.84 -77.06 -44.49 67.43 -20.87c-2.33,-1.35 -4.6,-2.66 -6.82,-3.94l-67.43 20.87 -45.95 -26.53c-2.86,0.53 -5.78,1.08 -8.71,1.65l133.64 77.15z"/>
    <path class="fil10" d="M2667.58 1866.54c0.1,-0.1 0.3,-0.2 0.4,-0.3 0,-0.1 0.1,-0.1 0.1,-0.1l61.35 -44.3 82.85 -59.84 0 -9.38c0,-0.3 -0.1,-0.5 -0.4,-0.71 -0.1,-0.1 -0.3,-0.2 -0.51,-0.2 -6.16,-2.12 -42.08,8.68 -85.47,25.93l-28.76 11.4c-8.98,3.53 -17.26,8.48 -24.52,14.53 -20.68,17.05 -33.2,42.79 -33.2,70.54l0 1.51c7.16,-0.4 14.33,-2.02 20.59,-4.94l7.57 -4.14z"/>
   </g>
  </g>
  <g id="_1858893005312">
   <g>
    <g>
     <g>
      <g>
       <path class="fil28" d="M2819.63 3092.38c-84.31,-87 -133.83,-441.05 -51.6,-510.05l418.42 0c82.21,68.98 32.75,422.91 -51.52,509.97 -0.72,0.81 -1.55,1.59 -2.31,2.39 -0.97,0.97 -1.93,1.94 -2.9,2.87 -2.38,2.33 -4.91,4.62 -7.62,6.85 -0.67,0.56 -1.35,1.06 -2.01,1.6 -2.07,1.64 -4.11,3.28 -6.36,4.86 -3.6,2.58 -7.22,4.98 -10.9,7.04 -69.35,40.49 -181.8,40.49 -251.15,0l-0 -0 -0.01 0c-3.7,-2.08 -7.35,-4.5 -10.97,-7.1 -2.1,-1.47 -3.99,-3.01 -5.92,-4.53 -0.83,-0.67 -1.66,-1.28 -2.49,-1.98 -2.62,-2.16 -5.05,-4.37 -7.35,-6.61 -1.13,-1.07 -2.24,-2.2 -3.35,-3.31 -0.64,-0.67 -1.34,-1.33 -1.95,-2.01z"/>
      </g>
      <g>
       <path class="fil17" d="M2819.63 3092.38c-84.31,-87 -133.83,-441.05 -51.6,-510.05l418.42 0c82.21,68.98 32.75,422.91 -51.52,509.97 -0.72,0.81 -1.55,1.59 -2.31,2.39 -0.97,0.97 -1.93,1.94 -2.9,2.87 -2.38,2.33 -4.91,4.62 -7.62,6.85 -0.67,0.56 -1.35,1.06 -2.01,1.6 -2.07,1.64 -4.11,3.28 -6.36,4.86 -3.6,2.58 -7.22,4.98 -10.9,7.04 -69.35,40.49 -181.8,40.49 -251.15,0l-0 -0 -0.01 0c-3.7,-2.08 -7.35,-4.5 -10.97,-7.1 -2.1,-1.47 -3.99,-3.01 -5.92,-4.53 -0.83,-0.67 -1.66,-1.28 -2.49,-1.98 -2.62,-2.16 -5.05,-4.37 -7.35,-6.61 -1.13,-1.07 -2.24,-2.2 -3.35,-3.31 -0.64,-0.67 -1.34,-1.33 -1.95,-2.01z"/>
      </g>
      <g>
       <path class="fil33" d="M3150.12 2554.54c95.47,55.74 95.47,146.11 -0,201.85 -95.47,55.74 -250.26,55.74 -345.73,0 -95.47,-55.74 -95.47,-146.11 0,-201.85 95.47,-55.74 250.26,-55.74 345.73,-0z"/>
      </g>
      <g>
       <path class="fil34" d="M3150.12 2554.54c95.47,55.74 95.47,146.11 -0,201.85 -95.47,55.74 -250.26,55.74 -345.73,0 -95.47,-55.74 -95.47,-146.11 0,-201.85 95.47,-55.74 250.26,-55.74 345.73,-0z"/>
      </g>
      <g>
       <path class="fil33" d="M3104.2 2581.35c70.11,40.93 70.11,107.3 -0,148.24 -70.11,40.93 -183.78,40.93 -253.9,0 -70.11,-40.93 -70.11,-107.3 0,-148.24 70.11,-40.93 183.79,-40.93 253.9,0z"/>
      </g>
      <g>
       <path class="fil35" d="M3104.2 2581.35c70.11,40.93 70.11,107.3 -0,148.24 -70.11,40.93 -183.78,40.93 -253.9,0 -70.11,-40.93 -70.11,-107.3 0,-148.24 70.11,-40.93 183.79,-40.93 253.9,0z"/>
      </g>
      <g>
       <path class="fil13" d="M2850.31 2651.7c70.11,-40.93 183.78,-40.93 253.89,-0 19.47,11.37 33.34,24.74 42,38.94 -8.66,14.2 -22.52,27.57 -42,38.94 -70.11,40.93 -183.78,40.93 -253.89,0 -19.47,-11.37 -33.34,-24.74 -42,-38.94 8.65,-14.21 22.52,-27.57 42,-38.94z"/>
      </g>
     </g>
    </g>
   </g>
   <g>
    <g>
     <g>
      <path class="fil28" d="M2942.98 2473.03c-4.68,-9.52 -8.62,-19.4 -10.67,-30.53 -4.69,-25.49 1.67,-54.71 22.29,-70.4 8.21,-6.24 18.89,-10.87 22.38,-20.57 1.93,-5.35 1.2,-11.25 0.21,-16.85 -3.83,-21.76 -11.18,-44.17 -5.12,-65.42 5.6,-19.66 22.11,-34.73 40.58,-43.49 18.47,-8.76 38.96,-12.12 59.13,-15.45 10.75,-1.77 21.75,-3.65 31.26,-8.97 11.69,-6.54 15.32,-18.1 22.61,-28.24 8.02,-11.17 18.46,-21.51 28.68,-30.65 21.3,-19.04 48,-34.7 77.49,-33.4 61.54,2.72 59.8,55.68 42.03,95.83 -17.77,40.15 -22.44,53.21 16.01,95.04 38.44,41.82 38.53,93.37 -7.34,122.25 -45.87,28.88 -75.73,32.67 -57.57,88.25 16.21,49.62 26.26,91.99 -19.6,145.02 -29.64,34.27 -70.16,58.74 -120.86,56.66 -14.38,-0.59 -45.95,-7.2 -59.29,-13.83 -13.96,-6.94 -4.55,-17.79 -9.27,-31.55 -10.13,-29.59 -20.26,-59.17 -30.39,-88.75 -7.84,-22.9 -13.81,-48.3 -24.17,-69.99 -5.81,-12.17 -12.66,-23.29 -18.4,-34.96z"/>
     </g>
     <g>
      <path class="fil36" d="M2942.98 2473.03c-4.68,-9.52 -8.62,-19.4 -10.67,-30.53 -4.69,-25.49 1.67,-54.71 22.29,-70.4 8.21,-6.24 18.89,-10.87 22.38,-20.57 1.93,-5.35 1.2,-11.25 0.21,-16.85 -3.83,-21.76 -11.18,-44.17 -5.12,-65.42 5.6,-19.66 22.11,-34.73 40.58,-43.49 18.47,-8.76 38.96,-12.12 59.13,-15.45 10.75,-1.77 21.75,-3.65 31.26,-8.97 11.69,-6.54 15.32,-18.1 22.61,-28.24 8.02,-11.17 18.46,-21.51 28.68,-30.65 21.3,-19.04 48,-34.7 77.49,-33.4 61.54,2.72 59.8,55.68 42.03,95.83 -17.77,40.15 -22.44,53.21 16.01,95.04 38.44,41.82 38.53,93.37 -7.34,122.25 -45.87,28.88 -75.73,32.67 -57.57,88.25 16.21,49.62 26.26,91.99 -19.6,145.02 -29.64,34.27 -70.16,58.74 -120.86,56.66 -14.38,-0.59 -45.95,-7.2 -59.29,-13.83 -13.96,-6.94 -4.55,-17.79 -9.27,-31.55 -10.13,-29.59 -20.26,-59.17 -30.39,-88.75 -7.84,-22.9 -13.81,-48.3 -24.17,-69.99 -5.81,-12.17 -12.66,-23.29 -18.4,-34.96z"/>
     </g>
     <g>
      <path class="fil15" d="M3026.65 2698.05c1.79,-0.62 3.06,-2.34 3.04,-4.36 -2.6,-303.98 164.94,-485.48 166.64,-487.27 1.72,-1.83 1.65,-4.73 -0.16,-6.48 -1.8,-1.75 -4.67,-1.69 -6.4,0.15 -1.72,1.82 -171.76,185.81 -169.12,493.67 0.02,2.53 2.07,4.56 4.56,4.54 0.51,-0.01 0.99,-0.09 1.45,-0.25z"/>
     </g>
     <g>
      <path class="fil15" d="M3075.41 2415.29c0.32,-0.11 0.62,-0.26 0.92,-0.44 54.51,-34.3 151.81,-59.9 152.78,-60.18 2.45,-0.64 3.88,-3.12 3.25,-5.57 -0.63,-2.45 -3.1,-3.93 -5.53,-3.29 -4.05,1.04 -99.61,26.22 -155.29,61.26 -2.12,1.33 -2.77,4.15 -1.44,6.3 1.14,1.85 3.37,2.6 5.32,1.92z"/>
     </g>
     <g>
      <path class="fil15" d="M3092.25 2373.61c0.08,-0.03 0.16,-0.06 0.24,-0.1 2.31,-0.95 3.42,-3.62 2.47,-5.96 -19.08,-47.13 -49.02,-83.08 -50.29,-84.59 -1.62,-1.93 -4.49,-2.19 -6.38,-0.53 -1.91,1.63 -2.14,4.52 -0.52,6.46 0.3,0.36 30.29,36.39 48.81,82.11 0.92,2.27 3.42,3.39 5.67,2.61z"/>
     </g>
    </g>
    <g>
     <path class="fil30" d="M2983.93 2730.97c0,0 -56.89,21.53 -133.47,4.94 -76.58,-16.59 -123.43,-88.09 -123.43,-88.09 0,0 82.83,-33.19 131.13,-36.41 0,0 -74.95,-12.77 -145.07,3.11 0,0 -44.33,-16.51 -35.93,-91.37 0,0 41.72,-30.75 137.76,-18.7 0,0 -48.12,-34.35 -132.49,-44.49 -6.64,0.07 2.34,-97.45 10.39,-140.92 8.05,-43.47 24.01,-36.75 58.51,-33 34.5,3.75 136.54,26.97 149.48,52.01 12.95,25.03 0.36,88.84 0.36,88.84 0,0 28.04,-34.9 28.16,-83.51 0,0 38.4,14.04 58.93,32.17 20.53,18.13 30.8,32.78 36.73,45.98 -4.8,34.22 -20.9,86.43 -43.47,115.59 0,0 50.87,-32.84 62.49,-93.34 0,0 40.68,51.96 40.28,119.05 -0.46,76.51 -34.47,133.3 -100.38,168.16z"/>
     <path class="fil37" d="M2983.93 2730.97c0,0 -56.89,21.53 -133.47,4.94 -76.58,-16.59 -123.43,-88.09 -123.43,-88.09 0,0 82.83,-33.19 131.13,-36.41 0,0 -74.95,-12.77 -145.07,3.11 0,0 -44.33,-16.51 -35.93,-91.37 0,0 41.72,-30.75 137.76,-18.7 0,0 -48.12,-34.35 -132.49,-44.49 -6.64,0.07 2.34,-97.45 10.39,-140.92 8.05,-43.47 24.01,-36.75 58.51,-33 34.5,3.75 136.54,26.97 149.48,52.01 12.95,25.03 0.36,88.84 0.36,88.84 0,0 28.04,-34.9 28.16,-83.51 0,0 38.4,14.04 58.93,32.17 20.53,18.13 30.8,32.78 36.73,45.98 -4.8,34.22 -20.9,86.43 -43.47,115.59 0,0 50.87,-32.84 62.49,-93.34 0,0 40.68,51.96 40.28,119.05 -0.46,76.51 -34.47,133.3 -100.38,168.16z"/>
     <g>
      <path class="fil15" d="M2994.05 2724.17c-1.5,-0.59 -2.63,-2.01 -2.77,-3.75 -11.58,-145.07 -173.89,-371.68 -245.64,-417.18 -2.03,-1.29 -2.65,-4.01 -1.37,-6.07 1.28,-2.06 3.98,-2.65 6,-1.39 72.93,46.25 237.92,276.55 249.67,423.93 0.2,2.42 -1.59,4.55 -3.98,4.74 -0.68,0.06 -1.32,-0.05 -1.92,-0.28z"/>
     </g>
    </g>
   </g>
  </g>
  <g id="_1858893010352">
   <g>
    <g>
     <g>
      <path class="fil38" d="M1526.2 2633.48c-0.29,-1.63 -26.08,-95.81 -26.08,-95.81 0,0 8.49,8.67 62.96,-5.7 27.7,-7.31 59.22,-24.86 59.22,-24.86l15.55 68.85c14.5,26.51 62.59,14.3 115.26,8.3 8.86,-1.01 17.96,-2.49 27.06,-4.06l0.55 -0.06c28.45,-1.56 57,15.52 27.43,39.78 -29.57,24.26 -78.35,33.44 -123.32,41.57 -54.09,9.77 -148.94,25.65 -158.64,-28.01z"/>
     </g>
     <g>
      <path class="fil10" d="M1904.37 2625.14c0,0 5.7,10.9 3.94,28.94 -1.03,10.49 -26.97,46.09 -72.8,67.88 -45.82,21.78 -102.53,23.25 -129.07,30.89 -26.54,7.64 -50.85,22.88 -82.12,30.49 -32.23,7.85 -62.2,11.65 -93.54,-8.99 -5.77,-8.91 -12.17,-29.47 -10.32,-31.47 4.99,-5.38 383.91,-117.73 383.91,-117.73z"/>
      <path class="fil4" d="M1646.12 2585.13c20.18,13.95 61.91,4.26 107,-0.87 42.52,-4.84 90.4,-19.78 119.3,-9.77 28.9,10.02 53.07,44.05 14.01,87.67 -11.3,12.61 -35.22,34.82 -54.33,41.66 -48.55,17.39 -92.13,18.79 -123.36,26.5 -40.64,10.03 -62.85,28.02 -100.45,32.39 -48.65,5.64 -79.43,-6.86 -87.84,-19.85 -8.41,-13 -16.23,-117.72 4.63,-115.55 0,0 8.77,33.89 88.24,0.98 34.7,-14.37 34.14,-35.53 32.79,-43.16z"/>
      <path class="fil39" d="M1780.97 2641.34c0,0 -4.56,-44.24 -37.25,-55.95 0,0 -10.53,-4.84 -18.01,2.37 0,0 30.33,4.4 40.27,56.28 0,0 1.56,3.43 8.17,2.23 2.23,-0.4 7.13,-1.29 6.81,-4.94z"/>
      <path class="fil39" d="M1697.84 2591.21c0,0 -0.04,-1.46 7.68,-2.9 5.55,-1.04 8.96,0.98 8.96,0.98 0,0 24.38,10.56 28.94,56.8 0,0 -0.2,5.57 -7.51,7.11 -7.31,1.54 -8.72,-4.53 -8.72,-4.53 0,0 -5.02,-48.64 -29.35,-57.45z"/>
      <path class="fil39" d="M1671.68 2592.17c0,0 1.37,-2.79 7.11,-2.76 7.23,0.04 8.9,2.84 8.9,2.84 0,0 17.36,17.79 17.56,56.43 0,0 0.72,6.55 -8.39,7.21 -9.1,0.66 -7.8,-6.73 -7.8,-6.73 0,0 -3.14,-49.23 -17.38,-56.99z"/>
     </g>
    </g>
    <g>
     <g>
      <path class="fil2" d="M1492.55 1993.04c39.82,119.68 145.44,531.79 145.44,531.79 0,0 -68.73,61.75 -143.31,33.62l-177.65 -513.18 175.52 -52.23z"/>
     </g>
    </g>
   </g>
   <g>
    <g>
     <g>
      <path class="fil38" d="M1799.56 2766.52c-8.14,-12.08 -38.67,-95.9 -38.67,-95.9 0,0 31.89,18.22 86.69,5.19 27.87,-6.62 53.92,-36.89 53.92,-36.89l23.41 80.57c13.84,26.85 58.56,17.97 111.37,13.27 8.88,-0.79 18.01,-2.05 27.15,-3.39l0.55 -0.05c28.48,-0.86 56.6,16.92 26.44,40.44 -30.16,23.52 -79.15,31.51 -124.3,38.53 -54.31,8.44 -136.1,3.47 -166.56,-41.76z"/>
     </g>
     <g>
      <path class="fil10" d="M2209.19 2763.99c0,0 5.84,11.86 3.47,31.17 -1.38,11.24 -30.17,48.77 -79.94,70.95 -49.77,22.18 -110.69,22.26 -139.38,29.76 -28.69,7.5 -55.19,23.22 -88.97,30.57 -34.81,7.57 -67.08,10.87 -100.19,-12.11 -5.96,-9.72 -12.29,-31.96 -10.25,-34.06 5.5,-5.65 415.26,-116.27 415.26,-116.27z"/>
      <path class="fil4" d="M1933.52 2713.47c3.26,2.22 6.55,4.43 9.98,6.19 3.6,1.85 7.09,1.76 11.09,2.24 8.85,1.07 17.71,1.11 26.61,0.67 22.31,-1.1 44.46,-4.46 66.7,-6.45 45.77,-4.08 97.57,-18.86 128.33,-7.34 30.76,11.52 58.85,48.55 15.77,94.35 -12.46,13.24 -38.11,35.59 -57.74,43.8 -51.1,21.37 -104.13,17.38 -137.86,24.83 -43.89,9.7 -68.21,28.43 -108.69,32.12 -52.38,4.78 -85.08,-9.45 -93.77,-23.63 -4.85,-7.91 0.55,-48.97 -6.02,-80.86 -5.65,-27.46 -4.17,-46.17 5.7,-44.9 1.56,3.54 5.21,6.73 7.65,9.71 3.17,3.87 7.17,6.91 11.62,9.18 6.16,3.16 12.93,4.91 19.65,6.61 11.96,3.02 24.19,5.96 36.48,5.01 3.51,-0.27 7.18,-0.93 9.91,-3.15 3.61,-2.93 4.79,-7.84 5.76,-12.39 0.86,-4.04 1.72,-8.08 2.58,-12.11 0.47,-2.2 0.96,-4.45 2.21,-6.32 1.49,-2.22 3.88,-3.64 6.22,-4.94 7.38,-4.12 15.3,-8.15 19.95,-15.21 3.64,-5.53 4.83,-12.27 5.85,-18.8 0.18,-1.13 0.42,-2.38 1.31,-3.09 1.49,-1.19 3.67,-0.18 5.28,0.85 1.81,1.15 3.62,2.39 5.43,3.62z"/>
      <path class="fil39" d="M2076.29 2778.13c0,0 -3.73,-47.61 -38.51,-61.04 0,0 -11.18,-5.47 -19.4,2.07 0,0 32.45,5.53 41.75,61.49 0,0 1.59,3.72 8.71,2.61 2.4,-0.37 7.69,-1.19 7.44,-5.12z"/>
      <path class="fil39" d="M1988.37 2722.12c0,0 -0.01,-1.58 8.32,-2.92 5.99,-0.97 9.59,1.29 9.59,1.29 0,0 25.9,11.98 29.58,61.73 0,0 -0.36,5.98 -8.25,7.43 -7.89,1.46 -9.24,-5.09 -9.24,-5.09 0,0 -4.1,-52.35 -30,-62.45z"/>
      <path class="fil39" d="M1960.26 2722.46c0,0 1.54,-2.95 7.7,-2.77 7.77,0.23 9.48,3.28 9.48,3.28 0,0 18.17,19.56 17.36,61.04 0,0 0.6,7.05 -9.19,7.52 -9.79,0.47 -8.2,-7.43 -8.2,-7.43 0,0 -2.07,-52.93 -17.15,-61.64z"/>
     </g>
    </g>
    <g>
     <path class="fil3" d="M1772.78 2134.35c31.35,96.44 111.41,370.98 147.99,512.18 0,0 -65.73,59.1 -150.27,53.94l-203.86 -528.59 81.19 -50.24 124.95 12.71z"/>
    </g>
   </g>
   <g>
    <g>
     <path class="fil3" d="M1101.61 3454.02c7.31,0 13.22,-5.91 13.22,-13.22l0 -849.71c0,-7.3 -5.91,-13.22 -13.22,-13.22 -7.3,0 -13.22,5.91 -13.22,13.22l0 849.71c0,7.3 5.91,13.22 13.22,13.22z"/>
    </g>
    <g>
     <path class="fil3" d="M575.89 3144.74c5.27,0 10.24,-3.16 12.29,-8.36l260.56 -659.5c2.68,-6.79 -0.65,-14.47 -7.44,-17.14 -6.76,-2.71 -14.45,0.63 -17.14,7.43l-260.56 659.5c-2.68,6.79 0.65,14.47 7.44,17.14 1.59,0.63 3.24,0.93 4.85,0.93z"/>
    </g>
    <g>
     <path class="fil3" d="M607.19 3065.53c3.51,0 7.01,-1.39 9.61,-4.14l484.84 -513.05 483.96 510.88c5.02,5.32 13.39,5.54 18.68,0.5 5.31,-5.02 5.53,-13.38 0.51,-18.68l-493.56 -521.03c-2.49,-2.63 -5.96,-4.13 -9.59,-4.13 0,0 0,0 -0.01,0 -3.63,0 -7.1,1.49 -9.59,4.14l-494.43 523.21c-5.02,5.31 -4.78,13.67 0.53,18.68 2.56,2.41 5.81,3.61 9.07,3.61z"/>
    </g>
    <g>
     <path class="fil3" d="M1627.33 3144.74c1.62,0 3.27,-0.3 4.85,-0.93 6.79,-2.67 10.12,-10.35 7.44,-17.14l-260.56 -659.5c-2.69,-6.8 -10.37,-10.14 -17.14,-7.43 -6.79,2.67 -10.12,10.35 -7.43,17.14l260.56 659.5c2.05,5.2 7.02,8.36 12.29,8.36z"/>
    </g>
    <g>
     <path class="fil30" d="M1633.71 2299.69c9.48,-53.3 -33.94,-94.89 -115.64,-150.03 -81.69,-55.13 -186.14,-109.78 -236.7,-132.99 -68.34,-31.37 -138.26,-28.48 -225.76,16.47 -121.56,62.46 -487.38,284.3 -487.38,284.3 0,0 546.92,308.77 652.15,294.92 105.23,-13.85 368.24,-184.88 389.07,-245.08 20.84,-60.2 24.25,-67.61 24.25,-67.61z"/>
    </g>
    <g>
     <path class="fil8" d="M1633.71 2299.69c9.48,-53.3 -33.94,-94.89 -115.64,-150.03 -81.69,-55.13 -186.14,-109.78 -236.7,-132.99 -68.34,-31.37 -138.26,-28.48 -225.76,16.47 -121.56,62.46 -487.38,284.3 -487.38,284.3 0,0 546.92,308.77 652.15,294.92 105.23,-13.85 368.24,-184.88 389.07,-245.08 20.84,-60.2 24.25,-67.61 24.25,-67.61z"/>
    </g>
    <g>
     <path class="fil28" d="M1167.55 2547.43c78.52,71.08 160.59,9.9 290.41,-74.35 146.94,-95.35 175.75,-173.39 175.75,-173.39 0,0 0,58.46 -10.96,85.87 -10.96,27.4 -34.71,58.46 -140.68,131.54 -105.96,73.08 -182.7,109.62 -253.95,123.19l-56.21 -7.77 -4.35 -85.09z"/>
    </g>
    <path class="fil40" d="M1457.96 2473.07c146.94,-95.35 175.75,-173.39 175.75,-173.39 0,0 0,58.46 -10.96,85.87 -10.96,27.4 -34.71,58.46 -140.68,131.54 -105.96,73.08 -182.7,109.62 -253.95,123.19l-56.21 -7.77 -4.35 -85.09c78.52,71.08 160.59,9.9 290.41,-74.35z"/>
    <g>
     <path class="fil28" d="M596.38 3041.24l-40.25 92.8c-0.25,0.79 -0.4,1.59 -0.44,2.4 -0.08,0.53 -0.11,1.12 -0.08,1.72 0.23,1.95 2.56,4.53 5.12,6.21 5.85,3.77 15.62,4.23 21.79,1.02 2.26,-1.18 3.73,-2.67 4.45,-4.26 0,-0.05 0,-0.1 0.06,-0.16l0.33 -1.28 37.36 -87.02 -28.34 -11.45z"/>
    </g>
    <g>
     <path class="fil28" d="M1609.37 3045.16l34.45 90.91c0.21,0.77 0.31,1.55 0.31,2.33 0.05,0.51 0.05,1.08 0,1.65 -0.31,1.86 -2.66,4.23 -5.19,5.73 -5.78,3.36 -15.18,3.36 -20.97,0 -2.12,-1.24 -3.46,-2.74 -4.08,-4.29 0,-0.05 0,-0.1 -0.05,-0.15l-0.26 -1.24 -31.94 -85.22 27.72 -9.71z"/>
    </g>
    <g>
     <path class="fil28" d="M1086.37 3375.02l-0 75.2c0,2.25 1.49,4.5 4.46,6.22 5.95,3.44 15.6,3.44 21.55,0 2.98,-1.71 4.46,-3.97 4.46,-6.22l0 -75.2c-10.16,-5.09 -20.32,-5.09 -30.47,0z"/>
    </g>
   </g>
   <g>
    <g>
     <g>
      <g>
       <path class="fil2" d="M787.28 1981.07c31.15,36.28 314.61,-45.26 389.69,-55.49 121.12,-16.5 219.72,-28.56 260.82,-15.63 41.09,12.92 58.57,33.87 71.17,83.1 14.86,58.07 22.56,87.66 22.56,87.66 0,0 -201.24,77.24 -359.92,95.84 -158.68,18.6 -384.31,-195.48 -384.31,-195.48z"/>
      </g>
      <g>
       <path class="fil3" d="M734.4 2034.26c-31.42,119.71 -59.66,259 13.07,335.24 48.97,51.35 295.01,184.72 453.74,132.18 156.36,-51.76 480.14,-292.14 512.63,-316.34 32.57,-24.26 62.04,-40.69 58.94,-50.99 -43.67,-144.96 -107.47,-156.28 -225.82,-130.25 -144.71,31.83 -462.42,161.49 -462.42,161.49l-350.14 -131.33z"/>
      </g>
     </g>
    </g>
    <g>
     <g>
      <g>
       <polygon class="fil38" points="1453.31,1264.48 1344.15,1387.92 1167.82,1304.26 1291.09,1133.71 "/>
      </g>
     </g>
     <g>
      <g>
       <path class="fil41" d="M1588.75 1030.02c0,0 44.69,64.54 39.92,71.09 -4.78,6.55 -36.42,13.09 -36.42,13.09l-3.5 -84.18z"/>
      </g>
      <path class="fil42 str0" d="M1636.94 1019.21c0,26.81 -21.73,48.54 -48.54,48.54 -26.81,0 -48.54,-21.73 -48.54,-48.54 0,-26.81 21.74,-48.54 48.54,-48.54 26.81,0 48.54,21.74 48.54,48.54z"/>
      <g>
       <path class="fil38" d="M1464.67 851.48c87.82,16.44 113.94,54.28 125.35,192.92 11.92,144.88 -1.84,190.82 -20.45,210.79 -12.57,13.47 -84,17.5 -120.3,8.38 -45.43,-11.41 -148.27,-45.23 -197.72,-117.11 -58.16,-84.57 -75.59,-200.59 -16.52,-249.7 83.14,-69.12 193.9,-51.98 229.64,-45.29z"/>
      </g>
      <path class="fil41" d="M1453.31 1264.48c37.8,8.54 95.26,3.38 112.33,-6.41 -1.62,0.44 -28.67,7.44 -63.57,-2.34 -35.99,-10.08 -58.24,-25.67 -58.24,-25.67l9.47 34.43z"/>
     </g>
     <g>
      <g>
       <g>
        <path class="fil10" d="M1606.28 908.21c-0.08,0.06 -0.17,0.12 -0.25,0.18 -24.51,16.9 -54.42,23.94 -83.84,28.52 2.33,23.51 -5.09,46.77 -12.4,69.24 -5.06,15.55 -23.33,64.38 -43.21,37.57 -14.37,-19.37 -27.43,-37 -54.93,-32.25 -45.34,7.83 -50.15,65.96 -20.68,100.53 29.49,34.57 55.9,20.45 55.9,20.45 0,0 4.18,62.49 -28.78,106.67 0,0 -49.19,30.23 -118.23,7.48 -43.57,-14.36 -106.45,-69.29 -129.62,-112.17 -63.77,-118 -64.1,-231.06 13.24,-265.83 7.15,-56.56 50.96,-82.85 101.29,-95.63 69.76,-17.72 142.24,26.05 209.69,-2.84 14.2,-6.09 27.28,-14.71 41.8,-19.98 8.16,-2.96 17.83,-4.66 25.11,0.09 6.29,4.11 8.98,11.88 10.73,19.18 3.22,13.43 4.46,28.44 -2.65,40.28 10.18,-4.9 20.54,-9.86 31.7,-11.68 11.16,-1.81 23.42,-0.07 32.05,7.22 8.03,6.79 11.89,17.47 12.86,27.93 2.75,29.55 -15.38,58.1 -39.77,75.03z"/>
       </g>
      </g>
      <g>
       <g>
        <path class="fil10" d="M1182.56 887.51l-53.01 -29.63c8.18,-14.64 26.68,-19.87 41.32,-11.68 14.64,8.18 19.86,26.68 11.69,41.32z"/>
       </g>
      </g>
     </g>
     <line class="fil42 str1" x1="1466.58" y1="1043.72" x2="1636.39" y2= "1011.99" />
    </g>
    <path class="fil38" d="M1821.67 1336.61c-4.58,-7.65 -14.73,-9.14 -23.14,-12.08 -15.61,-5.44 -27.79,-17.89 -42.82,-24.76 -16.74,-7.66 -36.18,-7.91 -54.08,-3.65 -6.17,1.47 -12.18,3.44 -18.07,5.78 -11.19,4.45 -21.9,10.22 -32.28,16.36 -43.03,25.47 -75.37,83.04 -117.67,109.45 -15.77,9.84 -30.49,18.78 -45,27.67l101.04 90.08c20.81,-16.93 40.68,-32.5 49.84,-37.95 24.87,-14.8 49.97,-15.14 77.92,-19.19 19.4,-2.81 38.24,-8.55 56.98,-14.26 6.6,-2.02 13.95,-4.66 16.79,-10.96 3.59,-7.98 -2.7,-17.59 -10.84,-20.79 -8.72,-3.43 -20.19,-2.55 -29.54,-4.05 -7.27,-1.17 -26.77,3.2 -31.09,-4.17 -2.26,-3.85 0.54,-8.61 3.33,-12.09 17.52,-21.85 39.69,-45.26 67.74,-51.83 8.7,-2.04 17.77,-4.13 24.67,-9.79 6.91,-5.67 10.8,-16.11 6.22,-23.78z"/>
    <path class="fil4" d="M1217.28 1235.84c-107.31,-58.55 -205.03,-20.96 -240.24,54.35 -31.86,68.14 -98.83,331.82 -98.83,331.82 32.19,60.36 339.07,-386.18 339.07,-386.18z"/>
    <g>
     <path class="fil33" d="M1201.21 1257.02l16.07 -21.18c-121.16,-57.57 -229.64,18.06 -325.19,166.68 -102.98,160.19 -157.03,390.2 -157.54,632.96 0,0 20.56,109.08 158.4,163.66 146.23,57.89 350.23,33.37 413.79,-118.21 0,0 1.28,-151.4 47.33,-225.94 29.8,-48.24 99.27,-155.46 150.95,-232.35 44.99,-66.93 79.96,-219.27 -14.04,-275 -27.53,-16.32 -38.95,-21.09 -76.42,-39 -85.52,28.24 -224.38,-17.65 -213.35,-51.6z"/>
     <path class="fil43" d="M1201.57 1257.56l15.7 -21.73c-121.16,-57.57 -229.64,18.06 -325.19,166.68 -102.98,160.19 -157.03,390.2 -157.54,632.96 0,0 20.56,109.08 158.4,163.66 146.23,57.89 350.23,33.37 413.79,-118.21 0,0 1.28,-151.4 47.33,-225.94 29.8,-48.24 99.27,-155.46 150.95,-232.35 44.99,-66.93 79.96,-219.27 -14.04,-275 -27.53,-16.32 -38.95,-21.09 -76.42,-39 -85.52,28.24 -224.01,-17.11 -212.98,-51.06z"/>
     <path class="fil44" d="M1544.13 1525.55c6.2,-29.18 8.32,-59.9 3.77,-88.23 0,0 0,0 0,-0 -21.98,51.48 -52.95,99.13 -91.49,139.73 -49.31,51.93 -110.2,92.37 -155.95,147.46 -48.45,58.35 -83.27,128.9 -123.84,192.63 -16.28,25.58 -38.5,74.91 -68.76,76.88 -36.87,2.4 -72.13,-42.55 -92.24,-73.55 -32.08,-49.46 -59.63,-111.24 -99.51,-154.64 -34.85,-37.93 -88.76,-86.53 -136.24,-64.5l-0 0c-3.55,12.59 -6.89,25.35 -10.03,38.23 -3.19,13.02 -6.14,26.1 -8.87,39.22 -0.11,0.5 -0.21,1 -0.31,1.51 -2.73,13.18 -5.24,26.42 -7.53,39.68 -0.12,0.71 -0.24,1.42 -0.36,2.12 -2.25,13.13 -4.28,26.3 -6.11,39.49 -7.84,56.76 -11.99,115.08 -12.12,173.9 0,0 20.56,109.08 158.4,163.66 146.23,57.89 350.23,33.37 413.79,-118.21 0,0 1.28,-151.4 47.33,-225.94 4.63,-7.49 10.3,-16.54 16.63,-26.54 0.02,-0.04 0.04,-0.07 0.06,-0.11 0.36,-0.57 0.72,-1.13 1.08,-1.7 5.26,-8.31 10.99,-17.31 17.12,-26.88 0.37,-0.58 0.75,-1.17 1.12,-1.76 0.16,-0.24 0.31,-0.48 0.47,-0.72 13.15,-20.52 27.9,-43.33 43.17,-66.75 2.31,-3.55 4.63,-7.1 6.95,-10.66 14.75,-22.56 29.77,-45.38 44.1,-66.93 0.05,-0.08 0.1,-0.15 0.15,-0.23 4.84,-7.28 9.55,-14.33 14.19,-21.25 1.98,-2.96 3.98,-5.95 5.92,-8.83 0.01,-0.02 0.03,-0.04 0.04,-0.06 1.62,-2.42 3.23,-4.97 4.82,-7.6 0.48,-0.79 0.95,-1.61 1.42,-2.42 1.15,-1.96 2.29,-3.97 3.42,-6.04 0.49,-0.91 0.99,-1.81 1.48,-2.74 1.23,-2.32 2.44,-4.71 3.63,-7.15 0.31,-0.62 0.62,-1.22 0.92,-1.86 1.53,-3.18 3.03,-6.46 4.48,-9.81 0.06,-0.13 0.11,-0.26 0.16,-0.39 0.08,-0.19 0.16,-0.39 0.24,-0.58 1.29,-3.02 2.56,-6.11 3.78,-9.25 0.29,-0.75 0.58,-1.5 0.87,-2.26 1.13,-2.97 2.23,-5.99 3.29,-9.05 0.08,-0.24 0.16,-0.48 0.25,-0.71 0.12,-0.34 0.24,-0.67 0.35,-1.01 1.92,-5.66 3.71,-11.45 5.35,-17.35 0.01,-0.04 0.02,-0.09 0.03,-0.13 1.64,-5.91 3.13,-11.92 4.44,-18 0.01,-0.05 0.02,-0.11 0.03,-0.16 0.04,-0.17 0.07,-0.34 0.11,-0.51z"/>
    </g>
    <g>
     <path class="fil38" d="M2106.26 1673c-7.56,9.38 -16.24,17.9 -25.18,26 -37.06,33.57 -80.38,49.67 -130.71,82.37 -40.69,26.43 -103.45,64.92 -156.33,97.88 -59.44,37.05 -131.12,67.17 -170.22,78.66 -49.13,14.44 -76.62,15.04 -105.67,-63.66 -14.25,-38.59 -25.54,-78.19 -37.84,-117.45 -18.31,-58.42 -36.29,-116.95 -53.96,-175.57 0,0 -65.34,-161.1 80.84,-242.01 63.6,36.39 87.84,51.14 107.79,127.32 23.85,91.2 62.52,271.22 62.52,271.22 51.7,-17.85 102.12,-39.96 151.08,-64.3 18.55,-9.22 41.35,-15.62 54.59,-32.12 8.99,-11.21 16.29,-23.63 23.24,-36.18 6.23,-11.23 10.73,-23.43 17.58,-34.17 12.73,-19.92 31.11,-36.66 48.04,-52.91 3.32,-3.19 7.03,-6.55 11.62,-6.88 4.84,-0.35 9.37,2.98 11.79,7.19 5.38,9.38 0.38,18.58 -2.37,28.18 -3.14,10.94 -6.28,21.88 -9.42,32.82 37.33,-22.1 68.98,-51.15 93.25,-87.41 2.21,-3.3 4.39,-6.69 7.35,-9.32 2.97,-2.64 6.91,-4.46 10.85,-3.97 9.79,1.21 19.48,17.01 19.97,26.03 0.5,9.19 -1.55,18.6 0.73,27.51 2.17,8.5 7.93,15.47 10.6,23.76 2.61,8.12 4.69,17.79 5.57,26.31 2.05,19.75 -4.92,38.37 -14.83,55.13 -3.23,5.46 -6.89,10.62 -10.87,15.55z"/>
     <path class="fil4" d="M1498.45 1352.48c55.71,22.52 95.81,47.96 121.2,132.92 25.54,85.44 52.94,221.32 52.94,221.32 0,0 0.52,28.51 -67.09,68.38 -67.61,39.87 -130.86,17.64 -130.86,17.64l-51.06 -164.09c0,0 -90.52,-219.46 74.88,-276.16z"/>
    </g>
   </g>
   <g>
    <path class="fil45" d="M1171.9 2632.52c-44.71,-2.25 -79.7,-35.07 -186,-79.37 -196.28,-81.78 -343.5,-147.21 -399.58,-250.03 -56.08,-102.81 -95.8,-399.57 -81.78,-528.09 1.86,-17.06 5.17,-31.07 9.61,-42.6l-13.8 -2.02 35.76 -30.44 0.01 0.09c36.67,-29.96 96.36,-3.25 141.34,21.23 128.5,69.94 228.99,137.87 308.44,383.22 59.76,184.55 99.17,352.9 181.65,442.92l4.35 85.09z"/>
    <path class="fil35" d="M514.15 1732.43l-13.8 -2.02 35.76 -30.44 0.01 0.09c36.67,-29.96 96.36,-3.25 141.34,21.23 128.5,69.94 228.99,137.87 308.44,383.22 59.76,184.55 99.17,352.9 181.65,442.92l4.35 85.09c-44.71,-2.25 -79.7,-35.07 -186.01,-79.37 -196.28,-81.79 -343.49,-147.21 -399.57,-250.03 -56.08,-102.81 -95.81,-399.58 -81.78,-528.09 1.86,-17.06 5.17,-31.07 9.61,-42.6z"/>
    <g>
     <path class="fil46" d="M640.21 1752.89c128.5,69.94 229,137.87 308.45,383.22 79.45,245.35 122.9,462.12 279.46,504.18 0,0 -70.79,28.13 -287.72,-63.62 -69.02,-29.19 -152.78,-82.42 -207.81,-113.3 -107.82,-60.51 -173.18,-110.09 -183.51,-128.64 -56.99,-102.31 -95.81,-399.58 -81.79,-528.09 14.02,-128.52 108.56,-88.77 172.91,-53.74z"/>
    </g>
   </g>
  </g>
  <g id="_1858893037712">
   <g>
    <path class="fil28" d="M1362.47 664.72l-35.49 -66.74 28.56 -82.43 0 -50.46 -87.39 50.46 0 50.46 37.57 65.08c0.64,1.1 1.55,1.82 2.55,2.27l-0.02 0.03 54.22 31.33z"/>
    <path class="fil47" d="M1362.47 664.72l-35.49 -66.74 28.56 -82.43 0 -50.46 -87.39 50.46 0 50.46 37.57 65.08c0.64,1.1 1.55,1.82 2.55,2.27l-0.02 0.03 54.22 31.33z"/>
    <path class="fil28" d="M1571.18 63.97c0,-16.71 -11.73,-37.03 -26.2,-45.39l-21.34 -12.32c-14.47,-8.35 -37.93,-8.35 -52.4,0l-327.19 189.24c-14.47,8.35 -26.21,28.67 -26.21,45.38l0 359.99c0,16.71 11.74,37.03 26.21,45.39l21.33 12.32c14.47,8.35 37.94,8.35 52.41,0l105.23 -60.8 37.5 64.95c2.4,4.15 8.56,3.56 10.13,-0.97l39.63 -114.4 134.7 -78.03c14.47,-8.35 26.2,-28.67 26.2,-45.38l-0 -360z"/>
    <path class="fil47" d="M1117.85 600.89c0,16.71 11.73,37.03 26.2,45.38l21.33 12.32c13.08,7.55 33.43,8.21 47.93,2.11 -12.33,4.66 -21.72,-2.29 -21.72,-17.24l-0.01 -360c0,-8.35 2.93,-17.61 7.67,-25.82l-73.74 -42.57c-4.74,8.21 -7.67,17.47 -7.67,25.82l0 360z"/>
    <path class="fil17" d="M1570.32 56.52c-3.06,-11.12 -13.2,-14.67 -25.3,-7.7l-327.24 189.28c-7.21,4.16 -13.81,11.25 -18.46,19.56l-73.71 -42.54c4.77,-8.31 11.24,-15.4 18.45,-19.56l327.12 -189.28c14.55,-8.31 38.01,-8.31 52.44,0l21.39 12.35c12.35,7.09 22.73,22.98 25.3,37.89z"/>
   </g>
   <g>
    <path class="fil15" d="M1239.69 424.81c0,-2.92 0.46,-5.42 1.35,-7.48 0.88,-2.06 2.16,-4.39 3.82,-6.99l71.13 -115c0.47,-0.63 0.86,-1.08 1.15,-1.35 0.3,-0.26 0.56,-0.45 0.81,-0.59 1.07,-0.62 1.95,-0.58 2.66,0.1 0.72,0.68 1.07,1.85 1.07,3.49l0 44.35c0,3.65 -0.69,6.73 -2.05,9.26 -1.36,2.52 -2.58,4.55 -3.64,6.07l-36.68 55.94 36.68 16.86c1.07,0.3 2.28,0.88 3.64,1.73 1.36,0.86 2.05,3.11 2.05,6.76l0 31.5c0,1.64 -0.36,3.22 -1.07,4.73 -0.71,1.5 -1.59,2.56 -2.66,3.18 -0.25,0.14 -0.51,0.24 -0.81,0.32 -0.3,0.08 -0.69,0.08 -1.15,-0.02l-71.13 -32.85c-1.66,-0.68 -2.94,-1.55 -3.82,-2.59 -0.89,-1.03 -1.35,-3.01 -1.35,-5.93l0 -11.5z"/>
    <path class="fil15" d="M1394.77 247.16c0.6,-2.34 1.48,-4.72 2.67,-7.15 1.18,-2.42 2.9,-4.27 5.16,-5.58l23.83 -13.76c1.07,-0.62 1.98,-0.55 2.76,0.19 0.77,0.74 1.15,1.93 1.15,3.57 0,0.74 -0.12,1.62 -0.36,2.68l-60.11 256.2c-0.47,2.09 -1.29,4.4 -2.49,6.91 -1.18,2.51 -2.96,4.46 -5.33,5.83l-23.3 13.45c-1.06,0.61 -1.98,0.55 -2.75,-0.19 -0.78,-0.75 -1.16,-1.94 -1.16,-3.58 0,-0.72 0.12,-1.62 0.37,-2.66l59.57 -255.91z"/>
    <path class="fil15" d="M1525.48 288.61c0,2.92 -0.45,5.42 -1.33,7.48 -0.9,2.07 -2.17,4.4 -3.83,7.01l-71.13 114.99c-0.47,0.64 -0.86,1.09 -1.16,1.35 -0.29,0.26 -0.56,0.46 -0.79,0.6 -1.08,0.62 -1.96,0.58 -2.67,-0.1 -0.72,-0.68 -1.07,-1.85 -1.07,-3.49l0 -44.36c0,-3.65 0.68,-6.69 2.04,-9.12 1.36,-2.43 2.59,-4.42 3.64,-5.94l31.12 -48.08 -31.12 -11.87c-1.06,-0.3 -2.28,-0.92 -3.64,-1.87 -1.36,-0.96 -2.04,-3.25 -2.04,-6.9l0 -44.36c0,-1.64 0.35,-3.22 1.07,-4.73 0.71,-1.5 1.59,-2.56 2.67,-3.18 0.24,-0.14 0.51,-0.25 0.79,-0.33 0.3,-0.07 0.69,-0.06 1.16,0.02l71.13 32.86c1.66,0.68 2.94,1.54 3.83,2.58 0.88,1.04 1.33,3.02 1.33,5.93l0 11.5z"/>
   </g>
  </g>
 </g>
</svg>
